<?xml version="1.0" standalone="no"?>
<!DOCTYPE svg PUBLIC "-//W3C//DTD SVG 1.1//EN" "http://www.w3.org/Graphics/SVG/1.1/DTD/svg11.dtd" >
<svg xmlns="http://www.w3.org/2000/svg">
  <metadata>Created by iconfont</metadata>
  <defs>
  <font id="iconfont" horiz-adv-x="1024">
    <font-face
      font-family="iconfont"
      font-weight="400"
      font-stretch="normal"
      units-per-em="1024"
      ascent="896"
      descent="-128"
    />
      <missing-glyph />
      
      <glyph glyph-name="chongdianqi" unicode="&#58881;" d="M792.5 576.7H687.7V832c0 5.5-4.5 10-10 10h-90.1c-5.5 0-10-4.5-10-10v-255.3H446.5V832c0 5.5-4.5 10-10 10h-90.1c-5.5 0-10-4.5-10-10v-255.3H231.5c-5.5 0-10-4.5-10-10v-520.1c0-66.5 54.1-120.6 120.6-120.6h339.8c66.5 0 120.6 54.1 120.6 120.6V566.7c0 5.5-4.4 10-10 10zM597.5 822h70.1v-245.3h-70.1V822z m-241.2 0h70.1v-245.3h-70.1V822z m426.2-775.4c0-55.5-45.1-100.6-100.6-100.6H342.1c-55.5 0-100.6 45.1-100.6 100.6V556.7h541.1v-510.1z"  horiz-adv-x="1024" />
      
      <glyph glyph-name="diannao" unicode="&#58882;" d="M911.7 768.3H112.3C80.2 768.3 54 742.2 54 710v-519.8c0-32.1 26.2-58.3 58.3-58.3h295.4v-62.3c0-7.6-2.6-15-7.3-21l-15.8-12.9c-6.7-5.5-9.2-14.4-6.3-22.6 2.9-8.2 10.4-13.5 19.2-13.5h229.1c8.7 0 16.2 5.3 19.2 13.5 2.9 8.2 0.5 17.1-6.3 22.6l-15.8 12.9c-4.7 6-7.3 13.4-7.3 21v62.3h295.4c32.1 0 58.3 26.2 58.3 58.3V710c-0.1 32.2-26.3 58.3-58.4 58.3zM608.9 35.2c0.4-0.5 0.9-0.9 1.3-1.3l16.6-13.5 0.1-0.1c0-0.1-0.1-0.4-0.1-0.5H397.3c-0.1 0.1-0.2 0.4-0.2 0.4l0.2 0.2 16.6 13.5c0.5 0.4 0.9 0.8 1.3 1.3 8.1 9.7 12.5 21.9 12.5 34.5V132h168.6v-62.3c0-12.6 4.5-24.9 12.6-34.5z m341.1 155c0-21.1-17.2-38.3-38.3-38.3H112.3c-21.1 0-38.3 17.2-38.3 38.3V710c0 21.1 17.2 38.3 38.3 38.3h799.4c21.1 0 38.3-17.2 38.3-38.3v-519.8zM865.3 693.7H158.7c-18.6 0-33.8-15.1-33.8-33.8v-387.2c0-18.6 15.1-33.8 33.8-33.8h706.6c18.6 0 33.8 15.1 33.8 33.8V660c0 18.6-15.2 33.7-33.8 33.7z m13.8-420.9c0-7.6-6.2-13.8-13.8-13.8H158.7c-7.6 0-13.8 6.2-13.8 13.8V660c0 7.6 6.2 13.8 13.8 13.8h706.6c7.6 0 13.8-6.2 13.8-13.8v-387.2z"  horiz-adv-x="1024" />
      
      <glyph glyph-name="danfan" unicode="&#58883;" d="M862 633.5h-80l-25.6 77.7C745.6 744 715.1 766 680.6 766H467.1c-33.1 0-63.1-20.8-74.8-51.8l-30.2-80.7H314v22.9c0 23.9-19.5 43.4-43.4 43.4h-61.1c-23.9 0-43.4-19.5-43.4-43.4v-22.9H162c-37 0-67.1-30.1-67.1-67.1V69c0-37 30.1-67.1 67.1-67.1h700c37 0 67.1 30.1 67.1 67.1V566.5c0 36.9-30.1 67-67.1 67z m-675.8 22.9c0 12.9 10.5 23.4 23.4 23.4h61.1c12.9 0 23.4-10.5 23.4-23.4v-22.9H186.2v22.9z m722.9-587.3c0-26-21.1-47.1-47.1-47.1H162c-26 0-47.1 21.1-47.1 47.1V566.5c0 26 21.1 47.1 47.1 47.1h207c4.2 0 7.9 2.6 9.4 6.5l32.7 87.2c8.7 23.2 31.2 38.8 56 38.8h213.5c25.9 0 48.7-16.5 56.8-41.1l27.9-84.5c1.4-4.1 5.2-6.9 9.5-6.9H862c26 0 47.1-21.1 47.1-47.1v-497.4zM586.2 577.4c-65.9 0-127.9-25.7-174.5-72.3-46.6-46.6-72.3-108.6-72.3-174.5s25.7-127.9 72.3-174.5c46.6-46.6 108.6-72.3 174.5-72.3s127.9 25.7 174.5 72.3c46.6 46.6 72.3 108.6 72.3 174.5s-25.7 127.9-72.3 174.5c-46.7 46.7-108.6 72.3-174.5 72.3z m160.3-407c-42.8-42.8-99.8-66.4-160.3-66.4s-117.5 23.6-160.3 66.4c-42.8 42.8-66.4 99.8-66.4 160.3 0 60.6 23.6 117.5 66.4 160.3 42.8 42.8 99.8 66.4 160.3 66.4s117.5-23.6 160.3-66.4c42.8-42.8 66.4-99.8 66.4-160.3 0-60.5-23.6-117.5-66.4-160.3zM586.2 496.9c-91.6 0-166.2-74.6-166.2-166.2s74.6-166.2 166.2-166.2 166.2 74.6 166.2 166.2c-0.1 91.7-74.6 166.2-166.2 166.2z m0-312.4c-80.6 0-146.2 65.6-146.2 146.2s65.6 146.2 146.2 146.2 146.2-65.6 146.2-146.2c-0.1-80.6-65.6-146.2-146.2-146.2zM304 584H176.2c-5.5 0-10-4.5-10-10v-72.8c0-5.5 4.5-10 10-10H304c5.5 0 10 4.5 10 10V574c0 5.5-4.5 10-10 10z m-10-72.8H186.2V564H294v-52.8z"  horiz-adv-x="1024" />
      
      <glyph glyph-name="erji" unicode="&#58884;" d="M428.4 842h-21.9c-13 0-24.5-6-32.1-15.4-14.8 1.3-101.7 6.3-157.9-44.1-31.1-27.9-46.8-67.4-46.8-117.4v-279.7c0-12.6 7.1-23.5 17.5-29v-34.6c0-13.7 8.9-25.4 21.3-29.6v-356c0-5.5 4.5-10 10-10s10 4.5 10 10V292c12.3 4.2 21.3 15.9 21.3 29.6v35.7c9.4 5.8 15.7 16.2 15.7 28V506.2c0 16 13 29 29 29h81c0.4 0 0.9 0 1.3 0.1 7.5-7.9 18-12.8 29.7-12.8h21.9c22.6 0 41.1 18.4 41.1 41.1V800.9C469.4 823.6 451 842 428.4 842zM218.5 310.4c-6.2 0-11.3 5.1-11.3 11.3v30.8h22.5v-30.8c0.1-6.3-5-11.3-11.2-11.3z m75.9 244.8c-27 0-49-22-49-49v-120.9c0-7.1-5.8-12.9-12.9-12.9h-30c-7.1 0-12.9 5.8-12.9 12.9V665c0 44.1 13.5 78.5 40.1 102.5C273.7 806.9 342.1 808 365.9 807c-0.3-2-0.5-4-0.5-6.1v-237.4c0-2.9 0.3-5.7 0.9-8.4h-71.9z m155 8.3c0-11.6-9.4-21.1-21.1-21.1h-21.9c-11.6 0-21.1 9.4-21.1 21.1V800.9c0 11.6 9.4 21.1 21.1 21.1h21.9c11.6 0 21.1-9.4 21.1-21.1v-237.4zM807.4 782.4c-56.2 50.4-143 45.4-157.9 44.1-7.5 9.5-19 15.5-32 15.5h-21.9c-22.6 0-41.1-18.4-41.1-41.1v-237.4c0-22.6 18.4-41.1 41.1-41.1h21.9c11.7 0 22.3 4.9 29.7 12.8 0.4-0.1 0.9-0.1 1.3-0.1h81c16 0 29-13 29-29v-120.9c0-11.8 6.3-22.2 15.7-28v-35.7c0-13.7 8.9-25.4 21.3-29.6v-356c0-5.5 4.5-10 10-10s10 4.5 10 10V292c12.3 4.2 21.3 15.9 21.3 29.6v34.6c10.4 5.5 17.5 16.5 17.5 29V665c-0.1 50.1-15.8 89.6-46.9 117.4zM617.5 542.5h-21.9c-11.6 0-21.1 9.4-21.1 21.1V800.9c0 11.6 9.4 21.1 21.1 21.1h21.9c11.6 0 21.1-9.4 21.1-21.1v-237.4c0-11.6-9.5-21-21.1-21z m112.1 12.7h-71.8c0.6 2.7 0.9 5.5 0.9 8.4V800.9c0 2.1-0.2 4.1-0.5 6.1 23.7 1 92 0 136-39.5 26.6-23.9 40.2-58.4 40.2-102.5v-279.7c0-7.1-5.8-12.9-12.9-12.9h-30c-7.1 0-12.9 5.8-12.9 12.9V506.2c-0.1 27-22 49-49 49z m75.9-244.8c-6.2 0-11.3 5.1-11.3 11.3v30.8h22.5v-30.8c0-6.3-5-11.3-11.2-11.3z"  horiz-adv-x="1024" />
      
      <glyph glyph-name="dianchi" unicode="&#58885;" d="M735.2 755.7h-146v35c0 28.3-23 51.4-51.4 51.4h-51.7c-28.3 0-51.4-23-51.4-51.4v-35h-146c-41.5 0-75.3-33.8-75.3-75.3v-679.1c0-41.5 33.8-75.3 75.3-75.3h446.5c41.5 0 75.3 33.8 75.3 75.3V680.4c0 41.5-33.8 75.3-75.3 75.3z m-280.4 34.9c0 17.3 14.1 31.4 31.4 31.4h51.7c17.3 0 31.4-14.1 31.4-31.4v-35H454.8v35z m335.7-789.3c0-30.5-24.8-55.3-55.3-55.3H288.8c-30.5 0-55.3 24.8-55.3 55.3V680.4c0 30.5 24.8 55.3 55.3 55.3h446.5c30.5 0 55.3-24.8 55.3-55.3v-679.1zM734 183.9H290c-5.5 0-10-4.5-10-10v-171.8c0-5.5 4.5-10 10-10h444c5.5 0 10 4.5 10 10V173.9c0 5.5-4.5 10-10 10zM581.3 12.1H467.1L579 163.9h113.4L582.9 15.3c-0.8-1-1.3-2.1-1.6-3.2z m-27.1 151.8L444.7 15.3c-0.7-1-1.2-2.1-1.6-3.2H326.2l111.9 151.8h116.1z m-254.2 0h113.3L303.7 15.3c-0.7-1-1.2-2.1-1.6-3.2H300V163.9z m424-151.8H605.4l111.9 151.8h6.7v-151.8zM734 431.7H290c-5.5 0-10-4.5-10-10v-171.8c0-5.5 4.5-10 10-10h444c5.5 0 10 4.5 10 10V421.7c0 5.5-4.5 10-10 10zM581.3 259.9H467.1L579 411.7h113.4L582.9 263.2c-0.8-1-1.3-2.1-1.6-3.3z m-27.1 151.8L444.7 263.2c-0.7-1-1.2-2.1-1.6-3.2H326.2l111.9 151.8h116.1z m-254.2 0h113.3L303.7 263.2c-0.7-1-1.2-2.1-1.6-3.2H300V411.7z m424-151.8H605.3l111.9 151.8h6.7v-151.8zM734 679.5H290c-5.5 0-10-4.5-10-10v-171.8c0-5.5 4.5-10 10-10h444c5.5 0 10 4.5 10 10V669.5c0 5.5-4.5 10-10 10zM581.3 507.8H467.1L579 659.6h113.4L582.9 511c-0.8-1-1.3-2.1-1.6-3.2z m-27.1 151.7L444.7 511c-0.7-1-1.2-2.1-1.6-3.2H326.2l111.9 151.8h116.1z m-254.2 0h113.3L303.7 511c-0.7-1-1.2-2.1-1.6-3.2H300V659.5z m424-151.7H605.3l111.9 151.8h6.7v-151.8z"  horiz-adv-x="1024" />
      
      <glyph glyph-name="jingtou" unicode="&#58886;" d="M874.4 573.1c0 0.2 0.1 0.5 0.1 0.7v0.5 185.5c0 15-12.2 27.1-27.1 27.1h-34c-24 0-46.6-11.7-60.3-31.4L728 719.8c-4.5-6.4-11.8-9.9-19.5-9.5-7.8 0.4-14.6 4.7-18.4 11.5l-32.2 58.4C636.8 818.3 596.7 842 553.2 842h-82c-43.5 0-83.5-23.7-104.6-61.7l-32.4-58.7c-3.8-6.8-10.6-11.1-18.4-11.5-7.8-0.4-15.1 3.1-19.5 9.5l-25.3 36c-13.8 19.6-36.3 31.4-60.3 31.4h-34c-15 0-27.1-12.2-27.1-27.1V573.4c0.1-0.7 2.3-16.3 11.2-32 9.5-16.7 23-27.4 39.5-31.6v-464c0-24.4 16-45.1 38.1-52.3l6.8-31.2c4.6-21 23.5-36.2 45-36.2h443.6c21.5 0 40.4 15.2 45 36.2l6.8 31.2c22.1 7.1 38.1 27.8 38.1 52.3V510.4c34.4 11.6 49.4 58.2 50.3 61.2v0.1c0.1 0.3 0.2 0.7 0.2 1 0.2 0.2 0.2 0.3 0.2 0.4zM169.5 759.8c0 3.9 3.2 7.1 7.1 7.1h34c17.5 0 33.9-8.5 44-22.9l25.4-36c8.5-12 22.3-18.8 37-18 14.7 0.8 27.7 9 34.8 21.8l32.4 58.7C401.6 802.3 435 822 471.2 822h82c36.2 0 69.6-19.7 87-51.4l32.2-58.4c7.1-12.9 20.1-21.1 34.8-21.8 14.7-0.8 28.5 5.9 37 18l25.1 35.7c10 14.3 26.5 22.9 44 22.9h34c3.9 0 7.1-3.2 7.1-7.1v-175.2h-685V759.8z m200.3-252v-109.6h-68.1V507.8h68.1z m88.1 0v-109.6h-68.1V507.8h68.1z m88.2 0v-109.6H478V507.8h68.1z m88.1 0v-109.6h-68.1V507.8h68.1z m88.1 0v-109.6h-68.1V507.8h68.1z m81.5 0v-109.6h-61.5V507.8h61.5z m-149.6-497V120.4h68.1v-109.6h-68.1z m-88.1 0V120.4h68.1v-109.6h-68.1z m-88.2 0V120.4H546v-109.6h-68.1z m-88.1 0V120.4h68.1v-109.6h-68.1z m-88.1 0V120.4h68.1v-109.6h-68.1z m-81.5 129.6V378.2h583.5v-237.9H220.2z m61.5 257.8h-61.5V507.8h61.5v-109.6z m-61.5-352.5v74.7h61.5v-109.6h-26.6c-19.2 0-34.9 15.6-34.9 34.9z m539.1-79.2c-2.6-11.9-13.3-20.5-25.5-20.5H290.2c-12.2 0-22.9 8.6-25.5 20.5l-5.3 24.3h505.2l-5.3-24.3z m9.6 44.3h-26.6V120.4h61.5v-74.7c0-19.3-15.7-34.9-34.9-34.9z m73.4 540.5c-10.3-15.6-21.9-23.5-34.6-23.5H216.3c-27.7 0-39.5 22.5-44.1 36.8h677.5c-1.9-4-4.4-8.7-7.4-13.3z"  horiz-adv-x="1024" />
      
      <glyph glyph-name="luxiangji" unicode="&#58887;" d="M950.2 545.8c-12.4 7.7-27.5 8.3-40.6 1.8l-97.5-48.7c-14.5-7.3-23.6-21.9-23.6-38.1v-30h-67V472c0 46.3-37.6 83.9-83.9 83.9h-8.4v101c0 21.7-17.7 39.4-39.4 39.4H210.6c-21.7 0-39.4-17.7-39.4-39.4V640c0-21.7 17.7-39.4 39.4-39.4h312.7c5.5 0 9.9-4.4 9.9-9.9v-34.8H137.9C91.6 555.9 54 518.3 54 472v-310.4c0-46.3 37.6-83.9 83.9-83.9h499.8c46.3 0 83.9 37.6 83.9 83.9V189h67v-23c0-15.8 8.7-30.3 22.7-37.7l97.5-51.6c6.2-3.3 12.9-4.9 19.5-4.9 7.4 0 14.8 2 21.5 6 12.6 7.6 20.2 21 20.2 35.7V510.4c0 14.5-7.4 27.8-19.8 35.4z m-0.2-432.3c0-7.7-3.9-14.6-10.5-18.6-6.6-4-14.5-4.2-21.3-0.6L820.7 146c-7.4 3.9-12 11.6-12 20v33c0 5.5-4.5 10-10 10h-87c-5.5 0-10-4.5-10-10v-37.5c0-35.2-28.7-63.9-63.9-63.9H137.9c-35.2 0-63.9 28.7-63.9 63.9V471.9c0 35.2 28.7 63.9 63.9 63.9h405.4c5.5 0 10 4.5 10 10v44.8c0 16.5-13.4 29.9-29.9 29.9H210.6c-10.7 0-19.4 8.7-19.4 19.4v16.9c0 10.7 8.7 19.4 19.4 19.4h379.3c10.7 0 19.4-8.7 19.4-19.4v-111c0-5.5 4.5-10 10-10h18.4c35.2 0 63.9-28.7 63.9-63.9v-51.2c0-5.5 4.5-10 10-10h87c5.5 0 10 4.5 10 10v40c0 8.6 4.8 16.4 12.5 20.2l97.5 48.7c6.8 3.4 14.7 3 21.1-0.9 6.4-4 10.3-10.9 10.3-18.4v-396.8zM587.6 468.1c-24.1 0-43.7-19.6-43.7-43.7s19.6-43.7 43.7-43.7 43.7 19.6 43.7 43.7-19.6 43.7-43.7 43.7z m0-67.4c-13.1 0-23.7 10.6-23.7 23.7s10.6 23.7 23.7 23.7 23.7-10.6 23.7-23.7-10.6-23.7-23.7-23.7z"  horiz-adv-x="1024" />
      
      <glyph glyph-name="shouji" unicode="&#58888;" d="M739.4 842H284.6c-30.8 0-55.8-25-55.8-55.8v-804.4c0-30.8 25-55.8 55.8-55.8h454.9c30.8 0 55.8 25 55.8 55.8V786.2c0 30.8-25.1 55.8-55.9 55.8z m35.9-860.2c0-19.8-16.1-35.8-35.8-35.8H284.6c-19.8 0-35.8 16.1-35.8 35.8V786.2c0 19.8 16.1 35.8 35.8 35.8h454.9c19.8 0 35.8-16.1 35.8-35.8v-804.4zM688.9 769.4H335.1c-20 0-36.4-16.3-36.4-36.4v-590.6c0-20 16.3-36.4 36.4-36.4h353.8c20 0 36.4 16.3 36.4 36.4V733.1c0 20-16.3 36.3-36.4 36.3z m16.4-626.9c0-9-7.3-16.4-16.4-16.4H335.1c-9 0-16.4 7.3-16.4 16.4V733.1c0 9 7.3 16.4 16.4 16.4h353.8c9 0 16.4-7.3 16.4-16.4v-590.6zM512 85.4c-32.5 0-59-26.5-59-59s26.5-59 59-59 59 26.5 59 59-26.5 59-59 59z m0-98c-21.5 0-39 17.5-39 39s17.5 39 39 39 39-17.5 39-39-17.5-39-39-39z"  horiz-adv-x="1024" />
      
      <glyph glyph-name="shujuxian" unicode="&#58889;" d="M771.4 598.9h-8V803.3c0 21.3-17.4 38.7-38.7 38.7H539c-21.3 0-38.7-17.4-38.7-38.7v-204.5h-8c-5.5 0-10-4.5-10-10v-200c0-29.3 23.9-53.2 53.2-53.2h42.6v-184c0-9.7 4.7-18.4 11.9-23.9V-64c0-5.5 4.5-10 10-10s10 4.5 10 10V121.8h43.7V-64c0-5.5 4.5-10 10-10s10 4.5 10 10V127.8c7.2 5.5 11.9 14.1 11.9 23.9v184h42.6c29.3 0 53.2 23.9 53.2 53.2v200c0 5.5-4.5 10-10 10zM520.3 803.3c0 10.3 8.4 18.7 18.7 18.7h185.8c10.3 0 18.7-8.4 18.7-18.7v-204.5H520.3V803.3z m145.4-651.6c0-5.5-4.4-9.9-9.9-9.9H608c-5.5 0-9.9 4.4-9.9 9.9v184h67.5v-184z m95.7 237.2c0-18.3-14.9-33.2-33.2-33.2H535.5c-18.3 0-33.2 14.9-33.2 33.2v190h259.1v-190zM407.5 709.9h-14.3V810.2c0 17.5-14.3 31.8-31.8 31.8h-62.6C281.3 842 267 827.7 267 810.2v-100.3h-14.3c-5.5 0-10-4.5-10-10v-200c0-22.4 14-41.7 33.7-49.5v-187.8c0-9.7 4.7-18.4 11.9-23.9V-64c0-5.5 4.5-10 10-10s10 4.5 10 10V232.8H352V-64c0-5.5 4.5-10 10-10s10 4.5 10 10V238.8c7.2 5.5 11.9 14.1 11.9 23.9V450.5c19.7 7.8 33.7 27 33.7 49.5V700c-0.1 5.4-4.6 9.9-10.1 9.9zM298.7 822h62.6c6.5 0 11.8-5.3 11.8-11.8V776h-86.3V810.2c0.1 6.5 5.4 11.8 11.9 11.8z m-11.8-66.1h86.3v-46.1h-86.3v46.1z m67-503.1h-47.7c-5.5 0-9.9 4.4-9.9 9.9v184h67.5v-184c0-5.5-4.4-9.9-9.9-9.9z m43.6 247.1c0-18.3-14.9-33.2-33.2-33.2h-68.6c-18.3 0-33.2 14.9-33.2 33.2v190h134.9v-190zM599.2 746.4h-46.5c-5.5 0-10-4.5-10-10v-46.5c0-5.5 4.5-10 10-10h46.5c5.5 0 10 4.5 10 10v46.5c0 5.5-4.4 10-10 10z m-10-46.6h-26.5v26.5h26.5v-26.5zM711.1 746.4h-46.5c-5.5 0-10-4.5-10-10v-46.5c0-5.5 4.5-10 10-10h46.5c5.5 0 10 4.5 10 10v46.5c0 5.5-4.5 10-10 10z m-10-46.6h-26.5v26.5h26.5v-26.5z"  horiz-adv-x="1024" />
      
      <glyph glyph-name="shumaxiangji" unicode="&#58890;" d="M910.4 678H113.6C80.7 678 54 651.2 54 618.4v-468.8c0-32.9 26.7-59.6 59.6-59.6h796.8c32.9 0 59.6 26.7 59.6 59.6V618.4c0 32.8-26.7 59.6-59.6 59.6zM950 149.6c0-21.8-17.8-39.6-39.6-39.6H113.6C91.8 110 74 127.8 74 149.6V618.4c0 21.8 17.8 39.6 39.6 39.6h796.8c21.8 0 39.6-17.8 39.6-39.6v-468.8zM652.5 617.8c-62.5 0-121.2-24.3-165.4-68.5s-68.5-102.9-68.5-165.4 24.3-121.2 68.5-165.4S590 150 652.5 150s121.2 24.3 165.4 68.5 68.5 102.9 68.5 165.4-24.4 121.3-68.6 165.5c-44.2 44.1-102.9 68.4-165.3 68.4z m0-447.6c-117.9 0-213.8 95.9-213.8 213.8 0 57.1 22.2 110.8 62.6 151.2 40.4 40.4 94.1 62.6 151.2 62.6 117.9 0 213.8-95.9 213.8-213.8s-95.9-213.8-213.8-213.8zM652.5 545.1c-88.8 0-161.1-72.3-161.1-161.1s72.3-161.1 161.1-161.1S813.6 295.2 813.6 384c-0.1 88.8-72.3 161.1-161.1 161.1z m0-302.2c-77.8 0-141.1 63.3-141.1 141.1s63.3 141.1 141.1 141.1 141-63.3 141-141.1-63.3-141.1-141-141.1zM362.6 617H162c-5.5 0-10-4.5-10-10v-75.2c0-5.5 4.5-10 10-10h200.6c5.5 0 10 4.5 10 10V607c0 5.5-4.5 10-10 10zM172 597h80.3v-55.2H172V597z m180.6-55.2h-80.3V597h80.3v-55.2z"  horiz-adv-x="1024" />
      
      <glyph glyph-name="zhuanbidao" unicode="&#59167;" d="M394.1 82.1c-0.6 0-1.2 0.1-1.7 0.4L145.8 191.2c-1.5 0.7-2.5 2.2-2.5 3.9v165c0 1.4 0.7 2.8 1.9 3.6s2.7 0.9 4 0.3l246.6-107.4c1.6-0.7 2.6-2.2 2.6-3.9v-166.4c0-1.4-0.7-2.8-1.9-3.6-0.7-0.3-1.5-0.6-2.4-0.6zM151.8 197.9l238.1-105V250L151.8 353.7v-155.8zM394.1 82.1c-0.8 0-1.6 0.2-2.3 0.7-1.2 0.8-2 2.1-2 3.6V252.8c0 1.4 0.7 2.7 1.8 3.5l473.9 328.3c1.3 0.9 2.9 1 4.3 0.3s2.3-2.1 2.3-3.6l10.4-267.4c0.1-1.7-0.9-3.3-2.4-4L396 82.5c-0.6-0.2-1.2-0.4-1.9-0.4z m4.3 168.5v-157.5l475.7 223.3-10 256.9-465.7-322.7zM394.1 248.5c-0.6 0-1.2 0.1-1.7 0.4L145.8 356.3c-1.4 0.6-2.3 1.9-2.5 3.4-0.2 1.5 0.4 3 1.6 3.9l416 319c1.1 0.8 2.6 1.1 3.9 0.7l304.6-98.1c1.5-0.5 2.7-1.8 2.9-3.4s-0.5-3.2-1.8-4.1L396.6 249.3c-0.8-0.5-1.6-0.8-2.5-0.8zM155.8 361.2l237.8-103.5 464.9 322.1-294.2 94.7-408.5-313.3zM294.1 292.1c-1.3 0-2.6 0.6-3.4 1.7-1.4 1.9-1 4.5 0.8 6l436.4 329.1c1.9 1.4 4.5 1 6-0.8 1.4-1.9 1-4.5-0.8-6L296.6 293c-0.7-0.6-1.6-0.9-2.5-0.9zM415.9 479.9c-1.7 0-3.2 1-3.9 2.6-0.9 2.2 0.1 4.7 2.3 5.6l52.6 21.9c2.2 0.9 4.7-0.1 5.6-2.3 0.9-2.2-0.1-4.7-2.3-5.6l-52.6-21.9c-0.6-0.2-1.1-0.3-1.7-0.3zM453.1 463.8c-1.7 0-3.2 1-3.9 2.6l-21.8 52.3c-0.9 2.2 0.1 4.7 2.3 5.6 2.2 0.9 4.7-0.1 5.6-2.3l21.8-52.3c0.9-2.2-0.1-4.7-2.3-5.6-0.6-0.2-1.1-0.3-1.7-0.3zM442.2 442.6c-30.1 0-54.6 24.5-54.6 54.6s24.5 54.6 54.6 54.6 54.6-24.5 54.6-54.6c0-30-24.5-54.6-54.6-54.6z m0 100.8c-25.4 0-46.1-20.7-46.1-46.1s20.7-46.1 46.1-46.1 46.1 20.7 46.1 46.1-20.7 46.1-46.1 46.1zM270.8 188.9c-24.6 0-44.6 20-44.6 44.6s20 44.6 44.6 44.6 44.6-20 44.6-44.6-20-44.6-44.6-44.6z m0 80.7c-19.9 0-36.1-16.2-36.1-36.1s16.2-36.1 36.1-36.1 36.1 16.2 36.1 36.1-16.2 36.1-36.1 36.1z"  horiz-adv-x="1024" />
      
      <glyph glyph-name="bijiben" unicode="&#59168;" d="M513 77.9H229.2c-13.1 0-23.8 10.7-23.8 23.8V669.2c0 13.1 10.7 23.8 23.8 23.8h391.4c13.1 0 23.8-10.7 23.8-23.8v-459.8c0-1.1-0.4-2.2-1.2-3L516 79.1c-0.8-0.8-1.9-1.2-3-1.2zM229.2 684.5c-8.4 0-15.3-6.9-15.3-15.3v-567.5c0-8.4 6.9-15.3 15.3-15.3h282l124.7 124.7V669.2c0 8.4-6.9 15.3-15.3 15.3H229.2z m411-475.2zM513 165.9c-2.3 0-4.3 1.9-4.3 4.3v29.3c0 7.7 6.3 14 14 14h117.4c2.3 0 4.3-1.9 4.3-4.3s-1.9-4.3-4.3-4.3H522.8c-3 0-5.5-2.5-5.5-5.5v-29.3c-0.1-2.3-2-4.2-4.3-4.2zM395.6 479h-97.8c-2.3 0-4.3 1.9-4.3 4.3v97.8c0 2.3 1.9 4.3 4.3 4.3h19.6c2.3 0 4.3-1.9 4.3-4.3s-1.9-4.3-4.3-4.3H302v-89.3h89.3v15.3c0 2.3 1.9 4.3 4.3 4.3s4.3-1.9 4.3-4.3v-19.6c-0.1-2.3-2-4.2-4.3-4.2zM346.7 518.2h-0.4c-1.4 0.2-2.7 1-3.4 2.3l-9.8 19.6c-1 2.1-0.2 4.7 1.9 5.7s4.7 0.2 5.7-1.9l6.8-13.6 35 43.7c1.5 1.8 4.1 2.1 6 0.7 1.8-1.5 2.1-4.1 0.7-6L350 519.8c-0.8-1.1-2-1.6-3.3-1.6zM503.2 537.7h-48.9c-2.3 0-4.3 1.9-4.3 4.3s1.9 4.3 4.3 4.3h48.9c2.3 0 4.3-1.9 4.3-4.3s-1.9-4.3-4.3-4.3zM561.9 479H454.3c-2.3 0-4.3 1.9-4.3 4.3s1.9 4.3 4.3 4.3h107.6c2.3 0 4.3-1.9 4.3-4.3s-1.9-4.3-4.3-4.3zM395.6 322.5h-97.8c-2.3 0-4.3 1.9-4.3 4.3v97.8c0 2.3 1.9 4.3 4.3 4.3h19.6c2.3 0 4.3-1.9 4.3-4.3s-1.9-4.3-4.3-4.3H302V331h89.3v15.3c0 2.3 1.9 4.3 4.3 4.3s4.3-1.9 4.3-4.3v-19.6c-0.1-2.3-2-4.2-4.3-4.2zM346.7 361.6h-0.4c-1.4 0.2-2.7 1-3.4 2.3l-9.8 19.6c-1 2.1-0.2 4.7 1.9 5.7s4.7 0.2 5.7-1.9l6.8-13.6 35 43.7c1.5 1.8 4.1 2.1 6 0.7 1.8-1.5 2.1-4.1 0.7-6L350 363.2c-0.8-1-2-1.6-3.3-1.6zM503.2 381.2h-48.9c-2.3 0-4.3 1.9-4.3 4.3s1.9 4.3 4.3 4.3h48.9c2.3 0 4.3-1.9 4.3-4.3s-1.9-4.3-4.3-4.3zM561.9 322.5H454.3c-2.3 0-4.3 1.9-4.3 4.3s1.9 4.3 4.3 4.3h107.6c2.3 0 4.3-1.9 4.3-4.3s-1.9-4.3-4.3-4.3zM395.6 165.9h-97.8c-2.3 0-4.3 1.9-4.3 4.3V268c0 2.3 1.9 4.3 4.3 4.3s4.3-1.9 4.3-4.3v-93.6h89.3v25.1c0 2.3 1.9 4.3 4.3 4.3s4.3-1.9 4.3-4.3v-29.3c-0.2-2.4-2.1-4.3-4.4-4.3zM757.6 107.2c-1.5 0-2.9 0.8-3.6 2.1l-58.7 97.8c-0.4 0.7-0.6 1.4-0.6 2.2V542c0 29.3 23.8 53.2 53.2 53.2h19.6c29.3 0 53.2-23.9 53.2-53.2v-332.7c0-0.8-0.2-1.5-0.6-2.2l-58.7-97.8c-1-1.3-2.3-2.1-3.8-2.1z m-54.5 103.3l54.4-90.7 54.5 90.7V542c0 24.6-20 44.7-44.7 44.7h-19.6c-24.6 0-44.7-20-44.7-44.7v-331.5zM767.4 126.8h-19.6c-2.3 0-4.3 1.9-4.3 4.3s1.9 4.3 4.3 4.3h19.6c2.3 0 4.3-1.9 4.3-4.3s-2-4.3-4.3-4.3zM757.6 205.1c-2.3 0-4.3 1.9-4.3 4.3V453.9c0 2.3 1.9 4.3 4.3 4.3s4.3-1.9 4.3-4.3v-244.6c-0.1-2.3-2-4.2-4.3-4.2zM816.3 498.6h-58.7c-2.3 0-4.3 1.9-4.3 4.3s1.9 4.3 4.3 4.3h58.7c2.3 0 4.3-1.9 4.3-4.3s-2-4.3-4.3-4.3zM816.3 449.7H738c-2.3 0-4.3 1.9-4.3 4.3s1.9 4.3 4.3 4.3h78.3c2.3 0 4.3-1.9 4.3-4.3s-2-4.3-4.3-4.3zM816.3 205.1H738c-2.3 0-4.3 1.9-4.3 4.3s1.9 4.3 4.3 4.3h78.3c2.3 0 4.3-1.9 4.3-4.3s-2-4.3-4.3-4.3z"  horiz-adv-x="1024" />
      
      <glyph glyph-name="bitong" unicode="&#59169;" d="M463 510.5c-2.2 0-4.1 1.7-4.2 3.9-0.2 2.3 1.6 4.4 3.9 4.6 16.2 1.3 32.3 1.9 49.4 1.9 2.3 0 4.3-1.9 4.3-4.3s-1.9-4.3-4.3-4.3c-16.9 0-32.8-0.6-48.7-1.9-0.1 0.1-0.3 0.1-0.4 0.1zM512.1 323.9c-66.4 0-128.9 9.9-176 27.9-48.4 18.5-75 43.6-75 70.6s26.6 52.1 75 70.6c2.2 0.8 4.7-0.3 5.5-2.5 0.8-2.2-0.3-4.7-2.5-5.5-44.2-16.9-69.5-39.7-69.5-62.7s25.3-45.8 69.5-62.7c46.1-17.6 107.6-27.3 172.9-27.3s126.8 9.7 172.9 27.3c44.2 16.9 69.5 39.7 69.5 62.7 0 27.1-35 53.5-93.5 70.7-2.3 0.7-3.5 3-2.9 5.3 0.7 2.3 3 3.5 5.3 2.9 63.3-18.6 99.6-47.3 99.6-78.9 0-27.1-26.6-52.1-75-70.6-46.9-17.9-109.4-27.8-175.8-27.8zM512.1-18.2c-91.2 0-161 13.7-207.3 40.8-35.4 20.7-43.1 41.6-43.4 42.5-0.2 0.5-0.2 0.9-0.2 1.4V422.4c0 2.3 1.9 4.3 4.3 4.3s4.3-1.9 4.3-4.3v-355.1c2.9-7 14.7-23.1 40.5-38 56.1-32.3 140.8-39 202-39s145.9 6.8 202 39c25.8 14.8 37.5 30.9 40.5 38V422.4c0 2.3 1.9 4.3 4.3 4.3s4.3-1.9 4.3-4.3v-355.9c0-0.5-0.1-1-0.2-1.4-0.3-0.9-8.1-21.8-43.4-42.5-46.7-27-116.5-40.8-207.7-40.8zM512.1 323.9c-1.9 0-3.6 1.3-4.1 3.2l-72.2 274.8-115.7-31.1 64.9-227c0.6-2.3-0.7-4.6-2.9-5.3-2.3-0.7-4.6 0.7-5.3 2.9l-66.1 231.2c-0.3 1.1-0.2 2.3 0.4 3.3 0.6 1 1.5 1.7 2.6 2l124 33.4c1.1 0.3 2.3 0.1 3.2-0.4s1.7-1.5 2-2.6l65.4-248.7 4.9 375.6c0 2.3 1.9 4.2 4.3 4.2h144.8c2.3 0 4.3-1.9 4.3-4.3v-387.4c0-2.3-1.9-4.3-4.3-4.3s-4.3 1.9-4.3 4.3V730.8H521.6l-5.3-402.7c0-2.1-1.6-3.9-3.7-4.2h-0.5zM314.8 569.5h-0.2c-2.3 0.1-4.2 2.1-4.1 4.4l5.6 142.2c0.1 1.8 1.3 3.4 3.1 3.9l43.7 12.7c1.8 0.5 3.8-0.2 4.8-1.9l74.7-121.6c1.2-2 0.6-4.6-1.4-5.8-2-1.2-4.6-0.6-5.8 1.4l-73 118.8-37.7-11-5.4-139.2c-0.1-2.2-2-3.9-4.3-3.9zM340.6 717.6c-1.8 0-3.5 1.2-4.1 3L325 758.4c-0.7 2.2 0.6 4.6 2.8 5.3 2.2 0.7 4.6-0.6 5.3-2.8l11.5-37.8c0.7-2.2-0.6-4.6-2.8-5.3-0.4-0.2-0.8-0.2-1.2-0.2zM610.4 671.2h-93.8c-2.3 0-4.3 1.9-4.3 4.3s1.9 4.3 4.3 4.3h93.8c2.3 0 4.3-1.9 4.3-4.3s-1.9-4.3-4.3-4.3zM563.5 622.7h-46.9c-2.3 0-4.3 1.9-4.3 4.3s1.9 4.3 4.3 4.3h46.9c2.3 0 4.3-1.9 4.3-4.3s-1.9-4.3-4.3-4.3zM563.5 581h-46.9c-2.3 0-4.3 1.9-4.3 4.3s1.9 4.3 4.3 4.3h46.9c2.3 0 4.3-1.9 4.3-4.3s-1.9-4.3-4.3-4.3zM563.5 489.8h-46.9c-2.3 0-4.3 1.9-4.3 4.3s1.9 4.3 4.3 4.3h46.9c2.3 0 4.3-1.9 4.3-4.3s-1.9-4.3-4.3-4.3zM563.5 448.7h-46.9c-2.3 0-4.3 1.9-4.3 4.3s1.9 4.3 4.3 4.3h46.9c2.3 0 4.3-1.9 4.3-4.3s-1.9-4.3-4.3-4.3zM610.4 535.3h-93.8c-2.3 0-4.3 1.9-4.3 4.3s1.9 4.3 4.3 4.3h93.8c2.3 0 4.3-1.9 4.3-4.3s-1.9-4.3-4.3-4.3zM610.4 398.6h-93.8c-2.3 0-4.3 1.9-4.3 4.3s1.9 4.3 4.3 4.3h93.8c2.3 0 4.3-1.9 4.3-4.3s-1.9-4.3-4.3-4.3z"  horiz-adv-x="1024" />
      
      <glyph glyph-name="bianqianjia" unicode="&#59170;" d="M353.5 30.9c-55.4 0-107.4 21.4-146.3 60.4s-60.4 90.9-60.4 146.3 21.4 107.4 60.4 146.3l159 159c1.7 1.7 4.4 1.7 6 0 1.7-1.7 1.7-4.4 0-6l-159-159c-37.3-37.3-57.9-87.2-57.9-140.3s20.6-103 57.9-140.3c37.3-37.3 87.2-57.9 140.3-57.9 53.2 0 103 20.6 140.3 57.9l287.6 287.6c68 68 101.1 129.3 98.5 182.3-1.7 35.6-19.7 67.8-53.5 95.5-27.7 22.7-61.6 35.3-95.4 35.3h-0.2c-29.8-0.1-57.5-10-74.2-26.7L316.1 330.8c-32.7-32.7-32.7-86 0-118.7s86-32.7 118.7 0L694 471.3c1.7 1.7 4.4 1.7 6 0 1.7-1.7 1.7-4.4 0-6L440.8 206.1c-17.4-17.4-40.6-27-65.4-27s-48 9.6-65.4 27c-17.4 17.4-27 40.6-27 65.4 0 24.8 9.6 48 27 65.4l340.5 340.5c18.2 18.2 48.2 29.2 80.2 29.2h0.3c35.8 0 71.6-13.2 100.9-37.3 35.7-29.3 54.7-63.5 56.6-101.6 2.7-55.5-31.3-119-101-188.8L499.8 91.2c-38.9-38.9-90.9-60.3-146.3-60.3z"  horiz-adv-x="1024" />
      
      <glyph glyph-name="diqiuyi" unicode="&#59171;" d="M493.5 187.3c-73.6 0-142.7 28.6-194.7 80.7-52 52-80.7 121.2-80.7 194.7 0 73.5 28.6 142.7 80.7 194.7 52 52 121.2 80.7 194.7 80.7 73.6 0 142.7-28.6 194.7-80.7 52-52 80.6-121.2 80.6-194.7 0-73.5-28.6-142.7-80.6-194.7-52-52-121.2-80.7-194.7-80.7z m0 542.2c-71.3 0-138.3-27.8-188.7-78.2-50.4-50.3-78.2-117.3-78.2-188.6s27.8-138.3 78.2-188.7c50.4-50.4 117.4-78.2 188.7-78.2 71.3 0 138.3 27.8 188.7 78.2 50.4 50.4 78.2 117.4 78.2 188.7S732.6 601 682.2 651.4c-50.4 50.4-117.5 78.1-188.7 78.1zM437 135.7c-0.2 0-0.5 0-0.7 0.1-66.1 11.5-126.3 42.3-174.4 89.3l-25.2-25.2-6 6 28.2 28.2c1.7 1.7 4.4 1.7 6 0 47.4-47.4 107.1-78.4 172.9-89.9 2.3-0.4 3.9-2.6 3.5-4.9-0.5-2.1-2.3-3.6-4.3-3.6zM708.1 29.2c-2.3 0-4.3 1.9-4.3 4.3 0 10.1-8.2 18.3-18.3 18.3h-90.4c-19.6 0-35.8 14.9-37.9 33.9H429.7c-2.1-19-18.3-33.9-37.9-33.9h-79.1c-10.1 0-18.3-8.2-18.3-18.3 0-2.3-1.9-4.3-4.3-4.3s-4.3 1.9-4.3 4.3c0 14.8 12 26.8 26.8 26.8h79.1c16.3 0 29.6 13.3 29.6 29.6 0 2.3 1.9 4.3 4.3 4.3h135.6c2.3 0 4.3-1.9 4.3-4.3 0-16.3 13.3-29.6 29.6-29.6h90.4c14.8 0 26.8-12 26.8-26.8 0-2.4-1.9-4.3-4.2-4.3zM493.5 85.7c-2.3 0-4.3 1.9-4.3 4.3v45.2c0 2.3 1.9 4.3 4.3 4.3 86.4 0 167.6 33.6 228.6 94.7 61.1 61.1 94.7 142.3 94.7 228.6 0 85.5-32.9 165.8-92.8 226.7-0.8 0.1-1.7 0.4-2.6 1.3-1.1 1.1-2.1 3.7 0 6l0.1 0.1 0.5 0.5 28.2 28.2 6-6-25.2-25.2c60.8-62.3 94.2-144.4 94.2-231.6 0-88.6-34.5-172-97.2-234.6-61.7-61.7-143.3-96.1-230.4-97.2v-41c0.1-2.4-1.8-4.3-4.1-4.3zM617.7 300.3c-0.3 0-0.6 0-0.9 0.1-1.4 0.3-2.6 1.3-3.1 2.7l-37.1 102c-4.2 11.7-15.4 19.5-27.9 19.5h-14c-6.2 0-11.8 3.7-14.3 9.4l-28.9 67.4c-1.8 4.2-1.7 9 0.4 13.1l15.9 31.7c3.4 6.9 11.5 10.2 18.8 7.8l22.9-7.6c0.7-0.2 1.5-0.4 2.2-0.4h32.1c3.9 0 7 3.2 7 7.1v4.3c0 2.7-1.5 5.1-3.9 6.3l-15.1 7.5c-1.1 0.6-2.3 1.4-3.3 2.4-8.8 8.3-20.3 12.2-34.3 11.9-5.3-0.1-10.2 2.4-13.2 6.7-3 4.3-3.6 9.8-1.7 14.6l12.4 31.1c2.4 5.9 8 9.8 14.4 9.8H581c1.1 0 2.2 0.2 3.1 0.7l20.2 10.1c2.1 1.1 4.7 0.2 5.7-1.9s0.2-4.7-1.9-5.7l-20.2-10.1c-2.1-1.1-4.5-1.6-7-1.6H546c-2.9 0-5.5-1.7-6.5-4.4l-12.4-31.1c-0.9-2.2-0.6-4.6 0.7-6.6 1.4-2 3.6-3.1 6-3 16.1 0.4 30-4.5 40.3-14.2 0.4-0.4 0.9-0.8 1.3-1l15.1-7.5c5.3-2.6 8.6-8 8.6-13.9v-4.3c0-8.6-7-15.6-15.5-15.6h-32.1c-1.7 0-3.3 0.3-4.9 0.8l-22.8 7.6c-3.3 1.1-7-0.4-8.5-3.5l-15.9-31.7c-0.9-1.9-1-4-0.2-5.9l28.9-67.4c1.1-2.6 3.7-4.3 6.5-4.3h14c16 0 30.4-10.1 35.8-25.1l34.8-95.7 14.6 14.6c1.3 1.3 2.1 3.1 2.1 5v37.1c0 3.1 0.9 6.1 2.6 8.6l40.5 60.8c1.1 1.6 1.4 3.7 1 5.6l-9.8 39.1c-0.1 0.5-0.3 1-0.5 1.5L656 512.2c-2.4 4.9-2.2 10.5 0.7 15.1 2.9 4.6 7.8 7.4 13.2 7.4h20.9c5.2 0 10-2.6 12.9-6.9l19.2-28.9c1.3-2 0.8-4.6-1.2-5.9-2-1.3-4.6-0.8-5.9 1.2l-19.2 28.9c-1.3 2-3.5 3.1-5.9 3.1h-20.9c-2.5 0-4.7-1.2-6-3.3-1.3-2.1-1.4-4.6-0.3-6.9l13.9-27.7c0.5-1 0.9-2.1 1.2-3.2l9.8-39.2c1.1-4.2 0.3-8.8-2.1-12.4l-40.5-60.8c-0.8-1.2-1.2-2.5-1.2-3.9v-37.1c0-4.2-1.6-8.1-4.6-11l-19.3-19.3c-0.8-0.7-1.9-1.1-3-1.1zM425 252.2h-0.6c-11.3 0.5-60.4 20.8-70.5 51-10.7 32.2-21.5 43.4-21.6 43.5l-0.3 0.3-43.9 55c-1.1 1.4-2 3-2.6 4.8l-10.7 32c-0.7 2.2 0.5 4.6 2.7 5.4 2.2 0.7 4.6-0.5 5.4-2.7l10.7-32c0.3-0.8 0.7-1.5 1.2-2.2l43.8-54.7c1.6-1.7 12.6-14.2 23.4-46.6 7.3-21.9 41.3-39 56.5-43.9-8.1 14.4-8.4 39.3-8.4 42.5v26.9c0 5.9 3.3 11.3 8.6 13.9l12.2 6.1c1.7 0.8 3 2.3 3.5 4.1l16.9 50.8c0.7 2 0.4 4.1-0.7 5.9-1.1 1.8-2.8 3-4.9 3.3l-51.2 8.5c-3.2 0.5-6.1 2-8.4 4.3L357 457.5c-0.9 0.9-2 1.5-3.3 1.9l-38.2 9.6c-3.5 0.9-6.5 2.9-8.7 5.8l-25.6 34.1c-4.6 6.1-4 14.9 1.4 20.3l12.4 12.4c2.9 2.9 6.8 4.6 11 4.6h21.6c2.9 0 5.5 1.7 6.5 4.4l17.3 43.3c2.1 5.2 6.8 8.8 12.2 9.6l54.9 7.8c2.4 0.3 4.4 1.8 5.4 4.1s0.8 4.7-0.6 6.8l-6.4 9.6c-2.3 3.4-3.1 7.6-2.3 11.7 0.8 4.1 3.2 7.6 6.6 9.9l13 8.7a7 7 0 0 1 3.1 5.2c0.2 2.1-0.5 4.2-2 5.7-1.7 1.7-1.7 4.4 0 6s4.4 1.7 6 0c3.3-3.3 4.9-7.9 4.5-12.5-0.5-4.7-3-8.8-6.8-11.4l-13-8.7c-1.6-1-2.6-2.6-3-4.5-0.4-1.8 0-3.7 1-5.3l6.4-9.6c3-4.5 3.5-10.1 1.3-15s-6.7-8.3-12-9l-54.9-7.8c-2.5-0.4-4.6-2-5.5-4.4L342 547.5c-2.4-5.9-8-9.8-14.4-9.8H306c-1.9 0-3.7-0.7-5-2.1l-12.4-12.4c-2.5-2.5-2.7-6.4-0.7-9.2l25.6-34.1c1-1.3 2.4-2.2 3.9-2.6l38.2-9.6c2.8-0.7 5.3-2.1 7.2-4.1l29.1-29.1c1-1 2.4-1.7 3.8-2l51.2-8.5c4.5-0.7 8.4-3.4 10.8-7.3 2.4-3.9 2.9-8.6 1.4-12.9L442.2 353c-1.3-3.9-4.1-7.1-7.8-9l-12.2-6.1c-2.4-1.2-3.9-3.6-3.9-6.3v-26.9c0-8.9 1.8-33.9 10-42.2 3-3 2.8-5.5 2.1-7-0.3-1.6-1.8-3.3-5.4-3.3z m-2 3.7z"  horiz-adv-x="1024" />
      
      <glyph glyph-name="dingshuding" unicode="&#59172;" d="M384.6 77.9c-0.5 0-1.1 0.1-1.6 0.3l-226 91.3c-1.1 0.5-2 1.4-2.4 2.5-0.4 1.1-0.3 2.4 0.2 3.5l36.5 68.5c0.4 0.8 1 1.4 1.8 1.8L435 370.4c2.1 1.1 4.7 0.3 5.7-1.8 1.1-2.1 0.3-4.7-1.8-5.7L198.2 238.7l-33.7-63.1 218-88 29.8 62.3c0.4 0.7 0.9 1.4 1.6 1.8l406 246c1.2 0.7 2.7 0.8 4 0.2l45.3-21.3c1.4-0.7 2.4-2.1 2.4-3.6 0.1-1.6-0.7-3.1-2.1-3.9L386.9 78.5c-0.2-0.1-0.4-0.2-0.5-0.3-0.2-0.1-0.4-0.1-0.5-0.2-0.5-0.1-0.9-0.1-1.3-0.1z m34.8 67.2l-24.9-52 463.9 279.1-36.1 17-402.9-244.1zM418.2 362.9c-0.4 0-0.8 0.1-1.3 0.2L206 428c-1.8 0.5-3 2.2-3 4.1v84.2c0 2.3 1.9 4.3 4.3 4.3s4.3-1.9 4.3-4.3v-81l207.2-63.8 309.6 16.2c2.3 0.1 4.3-1.7 4.5-4 0.1-2.3-1.7-4.3-4-4.5L418.6 363c-0.3-0.1-0.3-0.1-0.4-0.1zM833 389.8h-0.5l-403 51.5c-0.3 0-0.5 0.1-0.8 0.2l-245.6 80.8c-1.6 0.5-2.8 2-2.9 3.7-0.1 0.9-2 22.3 1.8 49.8 3.5 25.5 12.9 61.1 37.4 85.6 22.5 22.5 53.7 32.1 92.6 28.5 141.8-13.1 320.6-70.6 322.4-71.2 0.2 0 0.3-0.1 0.4-0.2l199.8-90.3c1.5-0.7 2.5-2.2 2.5-3.9V394c0-1.2-0.5-2.4-1.4-3.2-0.7-0.7-1.7-1-2.7-1z m-402 59.9l397.8-50.9V521.6l-197.1 89c-7.3 2.3-181.7 58-320.3 70.7-36.3 3.3-65.2-5.4-85.8-26-39.4-39.4-37.8-110.9-37-125.9L431 449.7zM438.6 440.2c-1.9 0-3.6 1.2-4.1 3.1-0.3 1-7.2 26-6.3 56.5 1.2 41 16.2 72.1 43.4 90 30.5 20 101 15.7 209.5-12.9 80.2-21.1 152.6-48.3 153.3-48.6 2.2-0.8 3.3-3.3 2.5-5.5-0.8-2.2-3.3-3.3-5.5-2.5-0.7 0.3-72.8 27.3-152.5 48.3-104.6 27.5-174.7 32.4-202.6 14-60.3-39.6-33.9-136.1-33.6-137 0.6-2.3-0.7-4.6-2.9-5.2-0.4-0.2-0.8-0.2-1.2-0.2zM301.5 398.7c-2.3 0-4.3 1.9-4.3 4.3v84.8c0 2.3 1.9 4.3 4.3 4.3s4.3-1.9 4.3-4.3V403c0-2.4-1.9-4.3-4.3-4.3zM402.7 367.6c-2.3 0-4.3 1.9-4.3 4.3v82.6c0 2.3 1.9 4.3 4.3 4.3s4.3-1.9 4.3-4.3v-82.6c-0.1-2.4-2-4.3-4.3-4.3zM733.1 335.8c-2.3 0-4.3 1.9-4.3 4.3v66.7c0 2.3 1.9 4.3 4.3 4.3s4.3-1.9 4.3-4.3v-66.7c-0.1-2.4-2-4.3-4.3-4.3zM319.8 211.5c-0.6 0-1.1 0.1-1.7 0.3l-54.7 23.5c-2.2 0.9-3.2 3.4-2.2 5.6 0.9 2.2 3.4 3.2 5.6 2.2l54.7-23.5c2.2-0.9 3.2-3.4 2.2-5.6-0.7-1.6-2.3-2.5-3.9-2.5zM400 176.4c-0.6 0-1.1 0.1-1.7 0.3l-54.7 23.5c-2.2 0.9-3.2 3.4-2.2 5.6 0.9 2.2 3.4 3.2 5.6 2.2l54.7-23.5c2.2-0.9 3.2-3.4 2.2-5.6-0.7-1.5-2.3-2.5-3.9-2.5z"  horiz-adv-x="1024" />
      
      <glyph glyph-name="fangdajing" unicode="&#59173;" d="M370.2 290.8c-59 0-114.5 23-156.2 64.7-41.7 41.7-64.7 97.2-64.7 156.2s23 114.5 64.7 156.2c41.7 41.7 97.2 64.7 156.2 64.7s114.5-23 156.2-64.7c41.7-41.7 64.7-97.2 64.7-156.2 0-59-23-114.5-64.7-156.2-41.7-41.8-97.2-64.7-156.2-64.7z m0 433.4c-117.2 0-212.5-95.3-212.5-212.5S253 299.3 370.2 299.3s212.5 95.3 212.5 212.5-95.4 212.4-212.5 212.4zM370.2 323.5c-103.8 0-188.2 84.4-188.2 188.2s84.4 188.2 188.2 188.2 188.2-84.4 188.2-188.2-84.5-188.2-188.2-188.2z m0 367.9c-99.1 0-179.7-80.6-179.7-179.7S271.1 332 370.2 332s179.7 80.6 179.7 179.7-80.7 179.7-179.7 179.7zM370.2 364.8c-81 0-146.9 65.9-146.9 146.9 0 2.3 1.9 4.3 4.3 4.3s4.3-1.9 4.3-4.3c0-76.3 62.1-138.4 138.4-138.4 2.3 0 4.3-1.9 4.3-4.3s-2.1-4.2-4.4-4.2zM738.7 73.5c-1.1 0-2.2 0.4-3 1.2L526.5 283.5c-0.8 0.8-1.2 1.9-1.2 3s0.5 2.2 1.3 3l69 68.4c1.7 1.6 4.3 1.6 6 0L813 150.4c0.6-0.6 1.1-1.4 1.2-2.3 0.2-0.9 3.8-23.4-23.7-49.1-27.1-25.2-50.8-25.5-51.8-25.5z m-203.2 213l204.9-204.4c2.2 0.2 6.4 0.9 12 2.9 7.7 2.7 19.5 8.4 32.3 20.3 20.7 19.3 21.5 35.6 21.3 40.1L598.4 349l-62.9-62.5zM543.1 296.1c-1.2 0-2.2 0.5-3 1.3l-39.6 40.5c-1.6 1.7-1.6 4.4 0.1 6 1.7 1.6 4.4 1.6 6-0.1l36.6-37.4 37.7 38.1-38.5 36.2c-1.7 1.6-1.8 4.3-0.2 6s4.3 1.8 6 0.2l41.7-39.2c0.8-0.8 1.3-1.9 1.3-3s-0.4-2.3-1.2-3.1l-43.8-44.3c-0.9-0.7-2-1.2-3.1-1.2zM773.9 86.9c-1.1 0-2.1 0.4-2.9 1.2l-49.9 48c-1.7 1.6-1.7 4.3-0.1 6 1.6 1.7 4.3 1.7 6 0.1l49.9-48c1.7-1.6 1.7-4.3 0.1-6-0.8-0.8-2-1.3-3.1-1.3zM567.2 244.6c-1.1 0-2.2 0.4-3 1.2-1.7 1.7-1.7 4.3 0 6l68.7 69.3c1.7 1.7 4.3 1.7 6 0 1.7-1.7 1.7-4.3 0-6l-68.7-69.3c-0.8-0.8-1.9-1.2-3-1.2zM685.3 217.9c-1.1 0-2.2 0.4-3 1.2l-43.5 42.8c-1.7 1.6-1.7 4.3 0 6 1.6 1.7 4.3 1.7 6 0l43.5-42.8c1.7-1.6 1.7-4.3 0-6-0.8-0.8-1.9-1.2-3-1.2z"  horiz-adv-x="1024" />
      
      <glyph glyph-name="gangbi" unicode="&#59174;" d="M473.9 175.8c-1.7 0-3.4 0.6-4.7 1.9L297.4 349.5a6.64 6.64 0 0 0 0 9.4l381.7 381.7c1.3 1.2 2.9 1.9 4.7 1.9 1.8 0 3.4-0.7 4.7-1.9l171.8-171.8c2.6-2.6 2.6-6.8 0-9.4L478.6 177.7c-1.3-1.3-3-1.9-4.7-1.9z m1.3 7.9zM304.7 354.2l169.1-169.1 379 379-169 169.2-379.1-379.1zM556 256.9c-1.1 0-2.2 0.4-3 1.2l-176.3 174c-1.7 1.6-1.7 4.3 0 6 1.6 1.7 4.3 1.7 6 0l176.3-174c1.7-1.6 1.7-4.3 0-6-0.8-0.8-1.9-1.2-3-1.2zM197.1 91.6c-1.2 0-2.4 0.5-3.2 1.4-0.9 1-1.2 2.3-1 3.5L223.6 271c0.2 1.4 1.2 2.6 2.5 3.2l107.5 47.3c2.2 0.9 4.7 0 5.6-2.2s0-4.7-2.2-5.6l-105.4-46.4-29.4-167.1 164.7 7.6 61 115.3c1.1 2.1 3.7 2.9 5.7 1.8 2.1-1.1 2.9-3.7 1.8-5.7l-62.2-117.4c-0.7-1.3-2.1-2.2-3.6-2.3l-172.5-8c0.1 0.1 0.1 0.1 0 0.1zM306.4 163.6c-15.8 0-28.7 12.9-28.7 28.7 0 15.8 12.9 28.7 28.7 28.7s28.7-12.9 28.7-28.7c0-15.8-12.9-28.7-28.7-28.7z m0 49c-11.1 0-20.2-9.1-20.2-20.2s9.1-20.2 20.2-20.2 20.2 9.1 20.2 20.2-9.1 20.2-20.2 20.2z"  horiz-adv-x="1024" />
      
      <glyph glyph-name="heiban" unicode="&#59175;" d="M840.4 190.8H182.2c-2.3 0-4.3 1.9-4.3 4.3v31.8c0 14.1 11.4 25.5 25.5 25.5 2.3 0 4.3-1.9 4.3-4.3s-1.9-4.3-4.3-4.3c-9.4 0-17-7.6-17-17v-27.6h649.7v27.6c0 9.4-7.6 17-17 17-2.3 0-4.3 1.9-4.3 4.3s1.9 4.3 4.3 4.3c14 0 25.5-11.4 25.5-25.5v-31.8c0.1-2.4-1.8-4.3-4.2-4.3zM330.8 42.2c-0.8 0-1.6 0.2-2.3 0.7-2 1.3-2.5 3.9-1.3 5.9l91.3 142.1H365l-94.3-146.7c-1.3-2-3.9-2.5-5.9-1.3-2 1.3-2.5 3.9-1.3 5.9l95.6 148.6c0.8 1.2 2.1 2 3.6 2h63.7c1.6 0 3-0.8 3.7-2.2 0.7-1.4 0.7-3-0.2-4.3l-95.5-148.6c-0.8-1.4-2.2-2.1-3.6-2.1zM755.5 42.2c-1.4 0-2.8 0.7-3.6 2l-94.3 146.7H604l91.3-142.1c1.3-2 0.7-4.6-1.3-5.9-2-1.3-4.6-0.7-5.9 1.3l-95.6 148.6c-0.8 1.3-0.9 3-0.2 4.3 0.7 1.4 2.2 2.2 3.7 2.2h64c1.4 0 2.8-0.7 3.6-2l95.6-148.6c1.3-2 0.7-4.6-1.3-5.9-0.8-0.4-1.6-0.6-2.4-0.6zM649.4 105.9h-276c-2.3 0-4.3 1.9-4.3 4.3s1.9 4.3 4.3 4.3h276c2.3 0 4.3-1.9 4.3-4.3s-2-4.3-4.3-4.3zM819.2 243.9H299c-2.3 0-4.3 1.9-4.3 4.3s1.9 4.3 4.3 4.3h516V679.2H207.7v-426.8h17c2.3 0 4.3-1.9 4.3-4.3s-1.9-4.3-4.3-4.3h-21.2c-2.3 0-4.3 1.9-4.3 4.3V683.4c0 2.3 1.9 4.3 4.3 4.3h615.8c2.3 0 4.3-1.9 4.3-4.3v-435.3c-0.1-2.3-2-4.2-4.4-4.2zM564.4 243.9H458.3c-2.3 0-4.3 1.9-4.3 4.3v39.6c0 3.9 3.2 7.1 7.1 7.1h100.5c3.9 0 7.1-3.2 7.1-7.1v-39.6c0-2.4-1.9-4.3-4.3-4.3z m-101.9 8.5h97.7v34h-97.7v-34zM281.6 379.5c-0.5 0-1.1 0.1-1.6 0.3-2.2 0.9-3.2 3.4-2.3 5.6l65.5 158.7c0.7 1.6 2.2 2.6 3.9 2.6 1.7 0 3.3-1 3.9-2.6l65-158.7c0.9-2.2-0.2-4.7-2.3-5.5-2.2-0.9-4.7 0.2-5.5 2.3l-61 149.1-61.5-149.2c-0.9-1.6-2.5-2.6-4.1-2.6zM388.3 437.2h-83c-2.3 0-4.3 1.9-4.3 4.3s1.9 4.3 4.3 4.3h83c2.3 0 4.3-1.9 4.3-4.3s-2-4.3-4.3-4.3zM664.9 522c-2.3 0-4.3 1.9-4.3 4.3v24.6c0 2.3 1.9 4.3 4.3 4.3s4.3-1.9 4.3-4.3v-24.6c0-2.4-1.9-4.3-4.3-4.3zM738.8 522H591.1c-2.3 0-4.3 1.9-4.3 4.3s1.9 4.3 4.3 4.3h147.7c2.3 0 4.3-1.9 4.3-4.3s-2-4.3-4.3-4.3zM604.2 379.5c-2.2 0-4 1.7-4.2 3.9-0.2 2.3 1.5 4.4 3.9 4.6 46.5 4 80.4 28.3 100.8 72.3 15.4 33.2 16.9 65.8 16.9 66.1 0.1 2.3 2.1 4.2 4.4 4.1 2.3-0.1 4.2-2.1 4.1-4.4-0.1-1.4-1.5-34.4-17.5-69.1-21.4-46.4-58.7-73.2-107.9-77.4-0.3-0.1-0.4-0.1-0.5-0.1zM723.6 381.6c-33.7 0-65.4 18.4-91.7 53.3-19.6 26-29.2 51.6-29.6 52.7-0.8 2.2 0.3 4.6 2.5 5.5 2.2 0.8 4.6-0.3 5.5-2.5 0.1-0.3 9.6-25.7 28.5-50.7 24.9-33 53.5-49.7 84.8-49.7 2.3 0 4.3-1.9 4.3-4.3s-2-4.3-4.3-4.3z"  horiz-adv-x="1024" />
      
      <glyph glyph-name="jisuanqi" unicode="&#59176;" d="M752.3 23H276.4c-4.8 0-8.7 3.9-8.7 8.7V726.1c0 4.8 3.9 8.7 8.7 8.7h475.9c4.8 0 8.7-3.9 8.7-8.7v-694.4c0-4.8-3.9-8.7-8.7-8.7zM276.4 726.3c-0.1 0-0.2-0.1-0.2-0.2v-694.4c0-0.1 0.1-0.2 0.2-0.2h475.9c0.1 0 0.2 0.1 0.2 0.2V726.1c0 0.1-0.1 0.2-0.2 0.2H276.4zM720.1 532.7h-408c-2.3 0-4.3 1.9-4.3 4.3V675.3c0 2.3 1.9 4.3 4.3 4.3h408.1c2.3 0 4.3-1.9 4.3-4.3V537c-0.1-2.4-2-4.3-4.4-4.3z m-403.8 8.5h399.5V671.1H316.3v-129.9zM756.7 451.1H271.9c-2.3 0-4.3 1.9-4.3 4.3v44.7c0 2.3 1.9 4.3 4.3 4.3h484.9c2.3 0 4.3-1.9 4.3-4.3v-44.7c-0.1-2.3-2-4.3-4.4-4.3z m-480.6 8.6h476.3v36.2H276.1v-36.2zM494.7 350.7H323.5c-2.8 0-5 2.3-5 5V417c0 2.8 2.3 5 5 5h171.2c2.8 0 5-2.3 5-5v-61.3c0.1-2.7-2.2-5-5-5zM327 359.2h164.2v54.4H327v-54.4zM603 351.8h-61.3c-2.8 0-5 2.3-5 5v61.3c0 2.8 2.3 5 5 5H603c2.8 0 5-2.3 5-5v-61.3c0.1-2.7-2.2-5-5-5z m-57.8 8.5h54.4v54.4h-54.4v-54.4zM710.9 351.3h-61.3c-2.8 0-5 2.3-5 5v61.3c0 2.8 2.3 5 5 5h61.3c2.8 0 5-2.3 5-5v-61.3c0-2.7-2.2-5-5-5z m-57.9 8.5h54.4v54.4H653v-54.4zM603 250.8h-61.3c-2.8 0-5 2.3-5 5v61.3c0 2.8 2.3 5 5 5H603c2.8 0 5-2.3 5-5v-61.3c0.1-2.8-2.2-5-5-5z m-57.8 8.5h54.4v54.4h-54.4v-54.4zM710.9 250.3h-61.3c-2.8 0-5 2.3-5 5v61.3c0 2.8 2.3 5 5 5h61.3c2.8 0 5-2.3 5-5v-61.3c0-2.8-2.2-5-5-5z m-57.9 8.5h54.4v54.4H653v-54.4zM384.9 250.5h-61.3c-2.8 0-5 2.3-5 5v61.3c0 2.8 2.3 5 5 5h61.3c2.8 0 5-2.3 5-5v-61.3c0-2.7-2.2-5-5-5zM327 259h54.4v54.4H327V259zM492.7 250h-61.3c-2.8 0-5 2.3-5 5v61.3c0 2.8 2.3 5 5 5h61.3c2.8 0 5-2.3 5-5V255c0.1-2.7-2.2-5-5-5z m-57.8 8.5h54.4v54.4h-54.4v-54.4zM603 162.4h-61.3c-2.8 0-5 2.3-5 5v61.3c0 2.8 2.3 5 5 5H603c2.8 0 5-2.3 5-5v-61.3c0.1-2.8-2.2-5-5-5z m-57.8 8.5h54.4v54.4h-54.4v-54.4zM710.9 161.9h-61.3c-2.8 0-5 2.3-5 5v61.3c0 2.8 2.3 5 5 5h61.3c2.8 0 5-2.3 5-5v-61.3c0-2.8-2.2-5-5-5z m-57.9 8.5h54.4v54.4H653v-54.4zM384.9 162.1h-61.3c-2.8 0-5 2.3-5 5v61.3c0 2.8 2.3 5 5 5h61.3c2.8 0 5-2.3 5-5v-61.3c0-2.7-2.2-5-5-5z m-57.9 8.5h54.4V225H327v-54.4zM492.7 161.6h-61.3c-2.8 0-5 2.3-5 5V228c0 2.8 2.3 5 5 5h61.3c2.8 0 5-2.3 5-5v-61.3c0.1-2.8-2.2-5.1-5-5.1z m-57.8 8.5h54.4v54.4h-54.4v-54.4zM603 73.2h-61.3c-2.8 0-5 2.3-5 5v61.3c0 2.8 2.3 5 5 5H603c2.8 0 5-2.3 5-5v-61.3c0.1-2.7-2.2-5-5-5z m-57.8 8.5h54.4v54.4h-54.4v-54.4zM710.9 72.7h-61.3c-2.8 0-5 2.3-5 5V139c0 2.8 2.3 5 5 5h61.3c2.8 0 5-2.3 5-5v-61.3c0-2.7-2.2-5-5-5z m-57.9 8.5h54.4v54.4H653v-54.4zM384.9 73h-61.3c-2.8 0-5 2.3-5 5v61.3c0 2.8 2.3 5 5 5h61.3c2.8 0 5-2.3 5-5V78c0-2.8-2.2-5-5-5z m-57.9 8.5h54.4v54.4H327v-54.4zM492.7 72.4h-61.3c-2.8 0-5 2.3-5 5v61.3c0 2.8 2.3 5 5 5h61.3c2.8 0 5-2.3 5-5v-61.3c0.1-2.7-2.2-5-5-5z m-57.8 8.6h54.4v54.4h-54.4V81z"  horiz-adv-x="1024" />
      
      <glyph glyph-name="keben" unicode="&#59177;" d="M799.7 94.6H222.9c-17.6 0-31.9 14.3-31.9 31.9v80.4c0 17.6 14.3 31.9 31.9 31.9h130.2c2.3 0 4.3-1.9 4.3-4.3s-1.9-4.3-4.3-4.3H222.9c-12.9 0-23.3-10.5-23.3-23.3v-80.4c0-12.9 10.5-23.3 23.3-23.3h576.8c12.9 0 23.3 10.5 23.3 23.3v80.4c0 12.9-10.5 23.3-23.3 23.3H413.9c-2.3 0-4.3 1.9-4.3 4.3s1.9 4.3 4.3 4.3h385.9c17.6 0 31.9-14.3 31.9-31.9v-80.4c-0.1-17.6-14.4-31.9-32-31.9zM655.7 102c-2.3 0-4.3 1.9-4.3 4.3V231.9c0 2.3 1.9 4.3 4.3 4.3s4.3-1.9 4.3-4.3v-125.7c0-2.3-1.9-4.2-4.3-4.2zM686.9 102c-2.3 0-4.3 1.9-4.3 4.3V231.9c0 2.3 1.9 4.3 4.3 4.3s4.3-1.9 4.3-4.3v-125.7c-0.1-2.3-2-4.2-4.3-4.2zM720.2 102c-2.3 0-4.3 1.9-4.3 4.3V231.9c0 2.3 1.9 4.3 4.3 4.3s4.3-1.9 4.3-4.3v-125.7c-0.1-2.3-2-4.2-4.3-4.2zM752.7 102c-2.3 0-4.3 1.9-4.3 4.3V231.9c0 2.3 1.9 4.3 4.3 4.3s4.3-1.9 4.3-4.3v-125.7c0-2.3-1.9-4.2-4.3-4.2zM512.5 144.6c-1.1 0-2.2 0.4-3 1.2l-21.3 21.3c-0.8 0.8-1.2 1.9-1.2 3s0.4 2.2 1.2 3l21.3 21.3c1.7 1.7 4.4 1.7 6 0l21.3-21.3c1.7-1.7 1.7-4.4 0-6l-21.3-21.3c-0.8-0.8-1.9-1.2-3-1.2z m-15.3 25.6l15.3-15.3 15.3 15.3-15.3 15.3-15.3-15.3zM585.6 144.6c-1.1 0-2.2 0.4-3 1.2l-21.3 21.3c-0.8 0.8-1.2 1.9-1.2 3s0.4 2.2 1.2 3l21.3 21.3c1.7 1.7 4.4 1.7 6 0l21.3-21.3c1.7-1.7 1.7-4.4 0-6l-21.3-21.3c-0.9-0.8-1.9-1.2-3-1.2z m-15.4 25.6l15.3-15.3 15.3 15.3-15.3 15.3-15.3-15.3zM742.4 230.6H413.9c-2.3 0-4.3 1.9-4.3 4.3s1.9 4.3 4.3 4.3h295.8c-0.8 0.4-1.7 0.9-2.5 1.4-29.2 16.4-35.4 46.6-35.4 69 0 31.6 34.9 58.5 55 71.4H288c-20.8 0-38.5-7.2-51-20.7-11.8-12.8-18.3-30.6-18.3-50.1s6.5-37.4 18.3-50.2c12.6-13.5 30.2-20.7 51-20.7h65.1c2.3 0 4.3-1.9 4.3-4.3s-1.9-4.3-4.3-4.3H288c-23.3 0-43.1 8.1-57.3 23.4-13.3 14.3-20.6 34.2-20.6 55.9 0 21.7 7.3 41.6 20.6 55.9 14.2 15.3 34 23.4 57.3 23.4h454.4c2 0 3.7-1.3 4.1-3.2 0.5-1.9-0.4-3.9-2.2-4.8-0.6-0.3-64.1-33.6-64.1-71.9 0-29.3 10.4-50 31-61.5 15.4-8.7 31-8.8 31.1-8.8 2.3 0 4.3-1.9 4.3-4.3s-1.8-4.2-4.2-4.2zM699.1 247H412.7c-2.3 0-4.3 1.9-4.3 4.3s1.9 4.3 4.3 4.3h276.5c-7.3 9-17.4 26-17.4 51 0 22.5 16.1 42 26.5 52.2h-390c-35.4 0-56.6-19.3-56.6-51.6s21.2-51.6 56.6-51.6H353c2.3 0 4.3-1.9 4.3-4.3s-1.9-4.3-4.3-4.3h-44.7c-48 0-65.1 31.1-65.1 60.1 0 29.1 17.1 60.1 65.1 60.1h401.1c1.8 0 3.4-1.2 4-2.9 0.6-1.7 0-3.6-1.4-4.7-0.3-0.2-31.8-24.9-31.8-53.1 0-34.2 21.3-51.8 21.5-51.9 1.4-1.1 1.9-3 1.3-4.7-0.5-1.8-2.1-2.9-3.9-2.9zM686 333.2H327.4c-2.3 0-4.3 1.9-4.3 4.3s1.9 4.3 4.3 4.3H686c2.3 0 4.3-1.9 4.3-4.3s-1.9-4.3-4.3-4.3zM682.2 271.3H413.9c-2.3 0-4.3 1.9-4.3 4.3s1.9 4.3 4.3 4.3h268.3c2.3 0 4.3-1.9 4.3-4.3s-2-4.3-4.3-4.3zM353.1 271.3h-25.7c-2.3 0-4.3 1.9-4.3 4.3s1.9 4.3 4.3 4.3h25.7c2.3 0 4.3-1.9 4.3-4.3s-1.9-4.3-4.3-4.3zM671.4 302H297.9c-2.3 0-4.3 1.9-4.3 4.3s1.9 4.3 4.3 4.3h373.5c2.3 0 4.3-1.9 4.3-4.3s-2-4.3-4.3-4.3zM412.7 169.7c-1.1 0-2.1 0.4-2.9 1.1L382.9 196 356 170.8c-1.2-1.2-3-1.5-4.6-0.8-1.6 0.7-2.6 2.2-2.6 3.9V306.5c0 2.3 1.9 4.3 4.3 4.3h59.5c2.3 0 4.3-1.9 4.3-4.3v-132.6c0-1.7-1-3.2-2.6-3.9-0.5-0.2-1.1-0.3-1.6-0.3zM382.9 206c1 0 2.1-0.4 2.9-1.1l22.6-21.2V302.2h-51v-118.5l22.6 21.2c0.8 0.8 1.9 1.1 2.9 1.1zM498.3 383.3c-13 0-22 3.5-25.2 5-28.5-2.9-53.5 1.3-74.4 12.6-18.9 10.1-34 25.7-44.9 46.1-13.5 25.4-19.9 57.2-17.9 89.8 1.9 30.8 11.2 58.2 25.4 75.2 13.7 16.3 29.8 25.2 48 26.4 29 1.9 54.4-16.2 62.9-23 16 14.1 34.5 21.4 53.8 21.3 18.7-0.1 37.2-7.1 53.4-20.2 39-31.5 59.4-94.8 22.9-155-26.9-44.3-56.8-70.1-88.9-76.6-5.6-1.1-10.6-1.6-15.1-1.6z m-24.5 13.6c0.7 0 1.4-0.2 2-0.5 0.1-0.1 14.7-7.7 36.3-3.1 29 6.1 57.6 31.2 82.7 72.5 34 56 15.2 114.9-20.9 144-14.7 11.9-31.4 18.2-48.1 18.3h-0.5c-18 0-35.4-7.4-50.2-21.5-1.6-1.5-4.2-1.6-5.8-0.1-0.4 0.4-28.4 25.4-59.6 23.3-15.8-1.1-29.9-8.9-42-23.4-13.1-15.6-21.6-41.2-23.4-70.3-1.9-31 4.1-61.2 16.9-85.2 15.3-28.6 47.1-61.2 112.2-54.1 0.1 0.1 0.2 0.1 0.4 0.1zM473.8 612.5c-1.6 0-3.1 0.9-3.8 2.4-13.2 27.6-14.8 52.4-4.7 73.7 18.2 38.5 67.6 51.1 69.7 51.6 2.2 0.6 4.5-0.8 5.1-3 12.3-46-6-77.4-23.5-95.7-18.8-19.6-40.2-28.3-41.1-28.7-0.6-0.2-1.2-0.3-1.7-0.3z m59 118.4c-11.9-3.8-46.4-17.1-59.9-45.8-8.4-17.9-7.4-38.9 3-62.6 6.7 3.3 21.6 11.5 34.7 25.2 22.1 23.2 29.6 51.2 22.2 83.2zM486.1 650c-0.8 0-1.6 0.2-2.4 0.7-2 1.3-2.5 3.9-1.2 5.9l37.2 55.6c1.3 2 3.9 2.5 5.9 1.2 2-1.3 2.5-3.9 1.2-5.9l-37.2-55.6c-0.8-1.2-2.1-1.9-3.5-1.9z"  horiz-adv-x="1024" />
      
      <glyph glyph-name="kezhuo" unicode="&#59178;" d="M694.1 475.7H329.8c-3.2 0-5.7 2.6-5.7 5.7V741.3c0 3.2 2.6 5.7 5.7 5.7h364.3c3.2 0 5.7-2.6 5.7-5.7v-259.9c0-3.1-2.5-5.7-5.7-5.7z m-361.5 8.5h358.7V738.5H332.6v-254.3zM852.2 373.2H174.6c-2.3 0-4.3 1.9-4.3 4.3s1.9 4.3 4.3 4.3h677.6c2.3 0 4.3-1.9 4.3-4.3s-2-4.3-4.3-4.3zM511.9 373.2c-2.3 0-4.3 1.9-4.3 4.3V431c0 2.3 1.9 4.3 4.3 4.3 2.3 0 4.3-1.9 4.3-4.3v-53.6c0-2.3-1.9-4.2-4.3-4.2zM216.9 60c-2.3 0-4.3 1.9-4.3 4.3V377.4c0 2.3 1.9 4.3 4.3 4.3s4.3-1.9 4.3-4.3v-313.2c-0.1-2.3-2-4.2-4.3-4.2zM457.6 60c-2.3 0-4.3 1.9-4.3 4.3V377.4c0 2.3 1.9 4.3 4.3 4.3s4.3-1.9 4.3-4.3v-313.2c0-2.3-1.9-4.2-4.3-4.2zM812.3 60c-2.3 0-4.3 1.9-4.3 4.3V377.4c0 2.3 1.9 4.3 4.3 4.3s4.3-1.9 4.3-4.3v-313.2c0-2.3-1.9-4.2-4.3-4.2zM457.6 229.2H216.9c-2.3 0-4.3 1.9-4.3 4.3s1.9 4.3 4.3 4.3h240.7c2.3 0 4.3-1.9 4.3-4.3s-1.9-4.3-4.3-4.3zM457.6 104.5H216.9c-2.3 0-4.3 1.9-4.3 4.3s1.9 4.3 4.3 4.3h240.7c2.3 0 4.3-1.9 4.3-4.3s-1.9-4.3-4.3-4.3zM368 291.5h-64.5c-2.3 0-4.3 1.9-4.3 4.3s1.9 4.3 4.3 4.3H368c2.3 0 4.3-1.9 4.3-4.3s-2-4.3-4.3-4.3zM368 166.8h-64.5c-2.3 0-4.3 1.9-4.3 4.3s1.9 4.3 4.3 4.3H368c2.3 0 4.3-1.9 4.3-4.3s-2-4.3-4.3-4.3z"  horiz-adv-x="1024" />
      
      <glyph glyph-name="moshui" unicode="&#59179;" d="M602.7 355.7H379.9c-6.9 0-12.5 5.6-12.5 12.5v53.9c0 6.9 5.6 12.5 12.5 12.5h222.8c6.9 0 12.5-5.6 12.5-12.5v-53.9c0-6.9-5.6-12.5-12.5-12.5z m-222.8 70.4c-2.2 0-4-1.8-4-4v-53.9c0-2.2 1.8-4 4-4h222.8c2.2 0 4 1.8 4 4v53.9c0 2.2-1.8 4-4 4H379.9zM703 10H279.6c-2.3 0-4.3 1.9-4.3 4.3V156.6c0 33.4 11.8 78.6 67.9 104 26.6 12.1 52.9 15 62.9 15.7V360c0 2.3 1.9 4.3 4.3 4.3H570c2.3 0 4.3-1.9 4.3-4.3v-84.1c59.7-1.3 92.5-29.7 109.6-53.6 19-26.5 23.1-52.6 23.3-53.7v-154.2c0-2.5-1.9-4.4-4.2-4.4z m-419.1 8.5h414.8v149c-0.5 2.9-5.1 26.6-21.9 50C653 250.6 617 267.3 570 267.3c-2.3 0-4.3 1.9-4.3 4.3v84.1h-151v-83.4c0-2.3-1.8-4.2-4.2-4.3-0.3 0-32.4-0.9-64-15.3-41.6-18.9-62.7-51.3-62.7-96.2v-138z m126.5 253.8zM580.3 110.9c-4.1 0-8.3 0.2-12.6 0.5-43.9 3.7-56.7 9.2-104.5 29.8-6.6 2.8-13.8 6-21.9 9.4-64.7 27.6-159.3-5.2-160.2-5.5-2.2-0.8-4.6 0.4-5.4 2.6s0.4 4.6 2.6 5.4c1 0.4 24.8 8.7 57.3 13.6 54.6 8.3 89.5 0.1 109.1-8.3 8.1-3.5 15.4-6.6 21.9-9.4 47.9-20.7 59.3-25.6 101.8-29.2 48.9-4.1 86.7 16.6 132 51.3 1.9 1.4 4.5 1.1 6-0.8s1.1-4.5-0.8-6c-35.6-27-74.4-53.4-125.3-53.4zM349.7 54c-0.7 0-1.3 0.2-2 0.5-2.1 1.1-2.9 3.7-1.8 5.7l226.9 429.9c0 0.1 0.1 0.1 0.1 0.2l135.6 257c0.7 1.3 2 2.2 3.5 2.3 1.5 0.1 2.9-0.6 3.8-1.9 0.5-0.8 13.2-19.5 23.1-45.7 13.3-35 15.2-66.5 5.3-91.1-11.9-29.6-40.1-49.7-83.9-59.9 2-9.5 4.7-31.9-9.4-48.8-13.2-15.9-37.4-22.2-72-18.6L353.5 56.3c-0.7-1.5-2.2-2.3-3.8-2.3z m233.7 437.9c29.7-2.6 50.2 2.8 61.1 15.9 14.9 18 6.7 45 6.7 45.3-0.4 1.1-0.2 2.4 0.4 3.4 0.6 1 1.6 1.8 2.8 2 43.3 9.2 70.9 27.9 82 55.7 18.3 45.6-12.5 103.9-23.7 122.7l-129.3-245z"  horiz-adv-x="1024" />
      
      <glyph glyph-name="naozhong" unicode="&#59180;" d="M508.2 71.3c-82.2 0-159.5 32-217.6 90.2s-90.2 135.4-90.2 217.6c0 82.2 32 159.5 90.2 217.6 58.1 58.1 135.4 90.2 217.6 90.2 82.2 0 159.5-32 217.6-90.2C784 538.6 816 461.3 816 379.1c0-82.2-32-159.5-90.2-217.6-58.1-58.2-135.4-90.2-217.6-90.2z m0 607c-79.9 0-155.1-31.1-211.6-87.7-56.5-56.5-87.7-131.7-87.7-211.6s31.1-155.1 87.7-211.6c56.5-56.5 131.7-87.7 211.6-87.7s155.1 31.1 211.6 87.7c56.5 56.5 87.7 131.7 87.7 211.6s-31.1 155.1-87.7 211.6c-56.5 56.6-131.6 87.7-211.6 87.7zM508.2 135.9c-64.9 0-126 25.3-171.9 71.2-45.9 45.9-71.2 107-71.2 171.9s25.3 126 71.2 171.9 107 71.2 171.9 71.2 126-25.3 171.9-71.2c45.9-45.9 71.2-107 71.2-171.9S726 253 680.1 207.1c-45.9-45.9-106.9-71.2-171.9-71.2z m0 477.8c-62.7 0-121.6-24.4-165.9-68.7-44.3-44.3-68.7-103.2-68.7-165.9s24.4-121.6 68.7-165.9c44.3-44.3 103.2-68.7 165.9-68.7s121.6 24.4 165.9 68.7c44.3 44.3 68.7 103.2 68.7 165.9S718.4 500.6 674.1 545c-44.3 44.3-103.2 68.7-165.9 68.7zM227.1 489.4c-0.8 0-1.6 0.2-2.3 0.7-33.8 22-53.9 59.3-53.9 99.5 0 65.5 53.3 118.8 118.8 118.8 38.5 0 74.7-18.8 97-50.2 1.4-1.9 0.9-4.6-1-5.9-1.9-1.4-4.6-0.9-5.9 1-20.7 29.2-54.3 46.6-90.1 46.6-60.8 0-110.3-49.5-110.3-110.3 0-37.4 18.7-71.9 50.1-92.4 2-1.3 2.5-3.9 1.2-5.9-0.8-1.3-2.2-1.9-3.6-1.9zM790.9 484.6c-1.5 0-3 0.8-3.7 2.2-1.1 2.1-0.4 4.6 1.7 5.8 35.6 19.3 57.7 56.5 57.7 97 0 60.8-49.5 110.3-110.3 110.3-37.4 0-71.9-18.7-92.4-50-1.3-2-3.9-2.5-5.9-1.2-2 1.3-2.5 3.9-1.2 5.9 22 33.7 59.2 53.9 99.5 53.9 65.5 0 118.8-53.3 118.8-118.8 0-43.6-23.8-83.6-62.2-104.4-0.6-0.5-1.3-0.7-2-0.7zM251.4 60c-1 0-1.9 0.3-2.7 1-1.8 1.5-2 4.2-0.5 6l66.5 78.4c1.5 1.8 4.2 2 6 0.5 1.8-1.5 2-4.2 0.5-6l-66.5-78.4c-0.9-1-2.1-1.5-3.3-1.5zM765 60c-1.2 0-2.4 0.5-3.2 1.5l-66.5 78.4c-1.5 1.8-1.3 4.5 0.5 6s4.5 1.3 6-0.5l66.5-78.4c1.5-1.8 1.3-4.5-0.5-6-0.8-0.6-1.8-1-2.8-1zM613.9 233.5c-1.3 0-2.6 0.6-3.4 1.7L504.8 374.7c-0.6 0.7-0.9 1.6-0.9 2.6v143c0 2.3 1.9 4.3 4.3 4.3s4.3-1.9 4.3-4.3v-141.7l104.8-138.3c1.4-1.9 1-4.5-0.8-6-0.8-0.5-1.7-0.8-2.6-0.8z"  horiz-adv-x="1024" />
      
      <glyph glyph-name="shubao" unicode="&#59181;" d="M484.5 86.2h-170c-3 0-5.4 2.4-5.4 5.4V226.8c0 3 2.4 5.4 5.4 5.4h170c3 0 5.4-2.4 5.4-5.4v-135.2c0-3-2.5-5.4-5.4-5.4z m-166.9 8.5h163.8v129H317.6v-129zM396.2 110.3c-13.4 0-18.1 15.4-18.3 16-0.1 0.4-0.2 0.8-0.2 1.2v41.2l-61.3 51.5c-1.8 1.5-2 4.2-0.5 6 1.5 1.8 4.2 2 6 0.5l62.8-52.8c1-0.8 1.5-2 1.5-3.3v-42.5c0.7-2 3.9-9.4 10-9.4 6.3 0 11 5 12.7 7.2v43c0 1.3 0.6 2.5 1.6 3.3l66.6 54.6c1.8 1.5 4.5 1.2 6-0.6 1.5-1.8 1.2-4.5-0.6-6l-65-53.3v-42.4c0-0.8-0.2-1.6-0.7-2.3-0.4-0.5-8.1-11.9-20.6-11.9zM721.7 86.2h-170c-3 0-5.4 2.4-5.4 5.4V226.8c0 3 2.4 5.4 5.4 5.4h170c3 0 5.4-2.4 5.4-5.4v-135.2c0-3-2.4-5.4-5.4-5.4z m-166.9 8.5h163.8v129H554.8v-129zM633.4 110.3c-13.4 0-18.1 15.4-18.3 16-0.1 0.4-0.2 0.8-0.2 1.2v41.2l-61.3 51.5c-1.8 1.5-2 4.2-0.5 6 1.5 1.8 4.2 2 6 0.5l62.8-52.8c1-0.8 1.5-2 1.5-3.3v-42.5c0.7-2 3.9-9.4 10-9.4 6.3 0 11 5 12.7 7.2v43c0 1.3 0.6 2.5 1.6 3.3l66.6 54.6c1.8 1.5 4.5 1.2 6-0.6 1.5-1.8 1.2-4.5-0.6-6l-65-53.3v-42.4c0-0.8-0.2-1.6-0.7-2.3-0.4-0.5-8.1-11.9-20.6-11.9zM694.1 35H350.6c-43 0-77.9 35-77.9 77.9V395.6c0 41.5 7.5 75.4 22.9 103.6 0.8 1.5 2.5 2.4 4.3 2.2 1.7-0.2 3.2-1.5 3.6-3.2C315 452.4 341.9 411 379 381.6c38.3-30.3 84.5-46.4 133.5-46.4 108.9 0 200.9 81.5 214.1 189.5 0.2 1.7 1.5 3.2 3.2 3.6 1.7 0.4 3.5-0.2 4.5-1.6 24.4-33.5 37.8-80.1 37.8-131.1V113c0-43-35-78-78-78zM298.2 485.4c-11.4-25-17-54.5-17-89.8V113c0-38.3 31.2-69.4 69.4-69.4h343.5c38.3 0 69.4 31.2 69.4 69.4V395.6c0 44.8-10.6 85.9-30.1 117.2-18.4-106.8-111.5-186-220.9-186-50.9 0-98.9 16.7-138.8 48.2-35.7 28.2-62.2 67.1-75.5 110.4zM610.8 296.6H422.6c-2.9 0-5.2 2.3-5.2 5.2v27.5c0 2.9 2.3 5.2 5.2 5.2h188.1c2.9 0 5.2-2.3 5.2-5.2v-27.5c0.1-2.8-2.3-5.2-5.1-5.2z m-184.9 8.5h181.5V326H425.9v-20.9zM583 273.7H450.3c-3.5 0-6.4 2.9-6.4 6.4V395.8c0 3.5 2.9 6.4 6.4 6.4H583c3.5 0 6.4-2.9 6.4-6.4V280c0-3.5-2.8-6.3-6.4-6.3z m-130.5 8.5H581V393.7H452.5v-111.5zM428 617.6c-0.8 0-1.6 0.2-2.4 0.7-1.2 0.8-1.9 2.1-1.9 3.5v34.9c0 49.8 40.5 90.4 90.4 90.4 49.8 0 90.4-40.5 90.4-90.4v-28.5c0-1.4-0.7-2.7-1.8-3.5-1.1-0.8-2.5-1-3.8-0.6-12.1 4.1-25.1 7.3-38.6 9.5-2.1 0.3-3.6 2.1-3.6 4.2V664c0 24-19.5 43.5-43.5 43.5S469.7 688 469.7 664v-29.9c0-2-1.3-3.7-3.3-4.1-12.3-3-24.6-7-36.7-12.1-0.5-0.2-1.1-0.3-1.7-0.3z m86.2 121c-45.1 0-81.9-36.7-81.9-81.9v-28.6c9.5 3.7 19.2 6.9 28.8 9.3V664c0 28.7 23.3 52 52 52s52-23.3 52-52v-22.6c10.6-1.9 21-4.3 30.8-7.4v22.7c0.1 45.2-36.6 81.9-81.7 81.9z m-48.8-104.4zM465.4 629.9c-0.9 0-1.9 0.3-2.6 0.9-1 0.8-1.6 2-1.6 3.3V664c0 28.7 23.3 52 52 52s52-23.3 52-52v-26.2c0-1.2-0.5-2.4-1.5-3.2-0.9-0.8-2.2-1.2-3.4-1-13.1 2.1-25.5 3.1-37.9 3.1-18.7 0-37.5-2.3-56-6.7-0.4 0-0.7-0.1-1-0.1z m47.8 77.7c-24 0-43.5-19.5-43.5-43.5v-24.5c17.5 3.8 35.2 5.8 52.8 5.8 11.1 0 22.6-0.8 34.3-2.5v21.3c-0.1 23.9-19.6 43.4-43.6 43.4zM800.7 110.3h-32.9c-2.3 0-4.3 1.9-4.3 4.3V272.7c0 2.3 1.9 4.3 4.3 4.3h32.9c3.6 0 6.5-2.9 6.5-6.5v-153.7c0-3.6-2.9-6.5-6.5-6.5z m-28.6 8.5h26.7V268.4h-26.7v-149.6zM800.7 275.4h-32.9c-2.3 0-4.3 1.9-4.3 4.3V437.8c0 2.3 1.9 4.3 4.3 4.3h32.9c3.6 0 6.5-2.9 6.5-6.5v-153.7c0-3.6-2.9-6.5-6.5-6.5z m-28.6 8.5h26.7V433.5h-26.7v-149.6zM276.9 105.6H244c-3.6 0-6.5 2.9-6.5 6.5V265.7c0 3.6 2.9 6.5 6.5 6.5h32.9c2.3 0 4.3-1.9 4.3-4.3v-158.2c0-2.2-1.9-4.1-4.3-4.1z m-30.9 8.5h26.7V263.7H246v-149.6zM276.9 270.7H244c-3.6 0-6.5 2.9-6.5 6.5V430.8c0 3.6 2.9 6.5 6.5 6.5h32.9c2.3 0 4.3-1.9 4.3-4.3v-158.2c0-2.2-1.9-4.1-4.3-4.1z m-30.9 8.5h26.7V428.8H246v-149.6zM299.3 492.9c-0.6 0-1.1 0.1-1.7 0.3-2.2 0.9-3.2 3.4-2.2 5.6 0.4 0.9 10.1 23.5 31.2 50.6 19.4 25 52.4 58.4 99.7 76.4 2.6 1.4 21.4 11.1 51.2 16.8 28.9 5.6 73.9 8.4 124.3-10.4 0.9-0.4 21.9-8.5 48.9-25.5 24.9-15.8 59.7-42.5 83.8-80.1 1.3-2 0.7-4.6-1.3-5.9-2-1.3-4.6-0.7-5.9 1.3-44.6 69.5-127.7 102-128.5 102.3-92.8 34.5-167.9-5.7-168.7-6.1-0.2-0.1-0.4-0.2-0.5-0.3-25.1-9.5-62.1-29.9-96.1-73.5-20.4-26.2-30.1-48.7-30.2-48.9-0.7-1.6-2.3-2.6-4-2.6z"  horiz-adv-x="1024" />
      
      <glyph glyph-name="taideng" unicode="&#59182;" d="M497.9 410.6c-1.1 0-2.2 0.4-3 1.2L335.3 571.5c-0.8 0.8-1.2 1.9-1.2 3 0 90.4 73.5 163.9 163.9 163.9s163.9-73.5 163.9-163.9-73.6-163.9-164-163.9zM342.5 576.3l157.1-157.1c84.9 0.9 153.7 70.3 153.7 155.4 0 85.7-69.7 155.4-155.4 155.4-85.1 0-154.4-68.8-155.4-153.7zM412.6 418.7c-23 0-41 6.6-53.8 19.6-21.5 22-19.7 54.2-19.6 55.5 0.2 2.3 2.2 4.1 4.5 4 2.3-0.2 4.1-2.2 4-4.5 0-0.4-1.6-29.9 17.3-49.1 11.9-12.2 29.6-17.9 52.5-16.9 2.3 0.1 4.3-1.7 4.4-4.1 0.1-2.3-1.7-4.3-4.1-4.4-1.8-0.1-3.5-0.1-5.2-0.1zM768.2 373.7c-1.2 0-2.4 0.5-3.2 1.5l-84 97.4c-1.5 1.8-1.3 4.5 0.4 6 1.8 1.5 4.5 1.3 6-0.4l83.9-97.3c1.5-1.8 1.3-4.5-0.4-6-0.7-0.8-1.7-1.2-2.7-1.2zM795.2 292c-27.4 0-49.6 22.3-49.6 49.6 0 27.4 22.3 49.6 49.6 49.6s49.6-22.3 49.6-49.6c0.1-27.3-22.2-49.6-49.6-49.6z m0 90.8c-22.7 0-41.1-18.4-41.1-41.1 0-22.7 18.4-41.1 41.1-41.1 22.7 0 41.1 18.4 41.1 41.1 0.1 22.6-18.4 41.1-41.1 41.1zM577 205.1c-1.2 0-2.3 0.5-3.2 1.4-1.6 1.8-1.4 4.4 0.4 6l191.1 168.6c1.8 1.6 4.4 1.4 6-0.4s1.4-4.4-0.4-6L579.8 206.2c-0.8-0.7-1.8-1.1-2.8-1.1zM618.6 132.6c-1.2 0-2.4 0.5-3.2 1.5-1.5 1.8-1.3 4.5 0.5 6L803.8 301c1.8 1.5 4.5 1.3 6-0.5s1.3-4.5-0.5-6L621.4 133.6c-0.8-0.7-1.8-1-2.8-1zM762.5 60c-2.3 0-4.3 1.9-4.3 4.3 0 50.2-46.4 66.5-51.9 68.3h-384c-21.1 0-39.3-11.5-54.2-34.2-7.6-11.6-12.3-23.3-14.7-29.9H707c2.3 0 4.3-1.9 4.3-4.3s-1.9-4.3-4.3-4.3H247.6c-1.3 0-2.6 0.6-3.4 1.7-0.8 1.1-1.1 2.4-0.7 3.7 0.2 0.8 5.3 19 17.4 37.5 16.3 25 37.6 38.2 61.4 38.2H707c0.4 0 0.8-0.1 1.2-0.2 0.6-0.2 14.9-4.3 29.2-15.7 13.4-10.6 29.3-29.8 29.3-60.9 0-2.3-1.9-4.2-4.2-4.2zM435.9 191.6h-83c-2.3 0-4.3 1.9-4.3 4.3s1.9 4.3 4.3 4.3h83c2.3 0 4.3-1.9 4.3-4.3s-2-4.3-4.3-4.3z"  horiz-adv-x="1024" />
      
      <glyph glyph-name="tugaiye" unicode="&#59183;" d="M511.3 20.5c-85.4 0-148.3 18.9-178.3 30.2-17 6.4-28.4 22.9-28.4 41V443c0 1 0.4 10.5 14.3 21.3 17.4 13.5 47.8 23.2 90.5 28.9 2.3 0.3 4.5-1.3 4.8-3.7 0.3-2.3-1.3-4.5-3.7-4.8-93.3-12.4-97.3-40.9-97.4-41.9v-351.2c0-14.6 9.2-27.8 22.9-33 29.4-11.1 91.2-29.7 175.3-29.7 84.1 0 145.9 18.6 175.3 29.7 13.7 5.2 22.9 18.4 22.9 33V442.9c-0.1 1.1-4.4 31.9-109.5 43.4-2.3 0.3-4 2.4-3.8 4.7 0.3 2.3 2.3 4 4.7 3.8 47.8-5.2 81.8-15 101.2-29.2 15.5-11.3 15.9-21.4 15.9-22.5v-351.3c0-18.1-11.4-34.6-28.4-41-29.9-11.4-92.9-30.3-178.3-30.3z m198.2 422.4zM526.7 402.5c-126.8 0-218.5 36.2-219.4 36.6-2.2 0.9-3.2 3.3-2.4 5.5 0.9 2.2 3.3 3.2 5.5 2.4 0.9-0.4 91.2-36 216.2-36 124.5 0 184.2 35.3 184.8 35.7 2 1.2 4.6 0.6 5.8-1.4 1.2-2 0.6-4.6-1.4-5.8-2.3-1.6-61.9-37-189.1-37zM511.3 81.9c-22.2 0-48.8 5.3-79.1 15.6-22.5 7.7-38.2 15.3-38.9 15.6-1.5 0.7-2.4 2.2-2.4 3.8V355.3c0 1.4 0.7 2.8 1.9 3.6 1.2 0.8 2.7 0.9 4.1 0.3 0.6-0.3 59.3-26.4 102.7-26.4 43.6 0 117.3 26.3 118.1 26.6 1.3 0.5 2.8 0.3 3.9-0.5s1.8-2.1 1.8-3.5V119c0-1.5-0.8-2.9-2.1-3.7-2.2-1.3-57-33.4-110-33.4z m-111.8 37.8c12-5.5 66.7-29.3 111.8-29.3 45 0 93.2 25.3 103.6 31.1V349.4c-18.4-6.3-76.9-25.1-115.3-25.1-37.4 0-83.8 17.8-100.2 24.6v-229.2zM507.2 452.9c-58.4 0-97.6 31.5-99.3 32.9-1 0.8-1.6 2-1.6 3.3V568c0 2.3 1.9 4.3 4.3 4.3s4.3-1.9 4.3-4.3v-76.8c7.7-5.7 43.4-29.8 92.3-29.8 49.1 0 81.6 25.2 88.4 31V568c0 2.3 1.9 4.3 4.3 4.3s4.3-1.9 4.3-4.3v-77.5c0-1.2-0.5-2.3-1.3-3.1-1.6-1.4-37.1-34.5-95.7-34.5zM505.3 533.6c-47.9 0-98.9 12.1-98.9 34.4s50.9 34.4 98.9 34.4 98.9-12.1 98.9-34.4-51-34.4-98.9-34.4z m0 60.3c-24.8 0-48.1-3.1-65.6-8.6-15.3-4.9-24.8-11.5-24.8-17.3s9.5-12.4 24.8-17.3c17.5-5.6 40.8-8.6 65.6-8.6s48.1 3.1 65.6 8.6c15.3 4.9 24.8 11.5 24.8 17.3s-9.5 12.4-24.8 17.3c-17.5 5.6-40.8 8.6-65.6 8.6zM446.4 515.1c-2.3 0-4.3 1.9-4.3 4.3v25c0 2.3 1.9 4.3 4.3 4.3s4.3-1.9 4.3-4.3v-25c0-2.4-1.9-4.3-4.3-4.3zM478.7 497.5c-2.3 0-4.3 1.9-4.3 4.3v37.3c0 2.3 1.9 4.3 4.3 4.3s4.3-1.9 4.3-4.3v-37.3c0-2.4-1.9-4.3-4.3-4.3zM515.2 496.4c-2.3 0-4.3 1.9-4.3 4.3V538c0 2.3 1.9 4.3 4.3 4.3 2.3 0 4.3-1.9 4.3-4.3v-37.3c-0.1-2.4-2-4.3-4.3-4.3zM551.7 508.3c-2.3 0-4.3 1.9-4.3 4.3v29.3c0 2.3 1.9 4.3 4.3 4.3s4.3-1.9 4.3-4.3v-29.3c-0.1-2.3-2-4.3-4.3-4.3zM446.4 587.4c-2.3 0-4.3 1.9-4.3 4.3v76.9c-0.1 2-0.6 19.2 12.1 32.9 10 10.7 25.3 16.2 45.4 16.2 18.2 0 32.5-5.4 42.3-16 15.3-16.6 14.1-39.8 14-42.3v-65c0-2.3-1.9-4.3-4.3-4.3s-4.3 1.9-4.3 4.3v65.2 0.3c0 0.2 1.5 21.8-11.8 36.1-8.1 8.8-20.2 13.2-36 13.2-17.6 0-30.8-4.5-39.2-13.5-10.8-11.5-9.9-26.5-9.8-26.7V591.6c0.2-2.3-1.7-4.2-4.1-4.2z"  horiz-adv-x="1024" />
      
      <glyph glyph-name="xianweijing" unicode="&#59184;" d="M797.6 39.5c-2.3 0-4.3 1.9-4.3 4.3 0 27.9-22.7 50.6-50.7 50.6H281.5c-27.9 0-50.7-22.7-50.7-50.6 0-2.3-1.9-4.3-4.3-4.3s-4.3 1.9-4.3 4.3c0 32.6 26.5 59.1 59.2 59.1h461.3c32.6 0 59.2-26.5 59.2-59.1 0-2.4-1.9-4.3-4.3-4.3zM534.1 116.4c-2.3 0-4.3 1.9-4.3 4.3v54.9c0 40-32.6 72.6-72.6 72.6-40 0-72.6-32.6-72.6-72.6v-54.9c0-2.3-1.9-4.3-4.3-4.3s-4.3 1.9-4.3 4.3v54.9c0 44.7 36.4 81.1 81.1 81.1 44.7 0 81.1-36.4 81.1-81.1v-54.9c0.1-2.4-1.8-4.3-4.1-4.3zM534.1 423.9c-44.7 0-81.1 36.4-81.1 81.1 0 44.7 36.4 81.1 81.1 81.1 44.7 0 81.1-36.4 81.1-81.1 0-44.7-36.4-81.1-81.1-81.1z m0 153.7c-40 0-72.6-32.6-72.6-72.6 0-40 32.6-72.6 72.6-72.6 40 0 72.6 32.6 72.6 72.6 0 40-32.6 72.6-72.6 72.6zM534.1 478.8c-14.5 0-26.2 11.8-26.2 26.2 0 14.5 11.8 26.2 26.2 26.2 14.5 0 26.2-11.8 26.2-26.2 0-14.5-11.8-26.2-26.2-26.2z m0 43.9c-9.8 0-17.7-8-17.7-17.7 0-9.8 7.9-17.7 17.7-17.7 9.8 0 17.7 7.9 17.7 17.7 0 9.8-8 17.7-17.7 17.7zM380.3 154.3c-0.3 0-0.6 0-1 0.1-43.8 10-83.6 35-112.1 70.3-29 35.8-44.9 80.8-44.9 126.6 0 51.8 19.8 101.1 55.6 138.9 35.7 37.6 83.7 59.9 135.1 62.8 2.3 0.1 4.4-1.7 4.5-4 0.1-2.3-1.7-4.4-4-4.5-49.2-2.7-95.1-24.1-129.4-60.1-34.4-36.2-53.3-83.4-53.3-133 0-43.9 15.3-87 43-121.3 27.3-33.8 65.5-57.7 107.4-67.3 2.3-0.5 3.7-2.8 3.2-5.1-0.4-2.1-2.2-3.4-4.1-3.4zM413.3 237.7h-0.4c-27.9 2.8-53.8 15.9-72.9 36.8-19.2 21.1-29.8 48.3-29.8 76.7 0 62.9 51.2 114.1 114.1 114.1h43.9c2.3 0 4.3-1.9 4.3-4.3s-1.9-4.3-4.3-4.3h-43.9c-58.2 0-105.6-47.4-105.6-105.6 0-26.2 9.8-51.4 27.6-71 17.7-19.4 41.6-31.5 67.4-34.1 2.3-0.2 4-2.3 3.8-4.7-0.2-2-2.1-3.6-4.2-3.6zM742.7 149.3c-2.3 0-4.3 1.9-4.3 4.3 0 9.8-7.9 17.7-17.7 17.7H534.1c-2.3 0-4.3 1.9-4.3 4.3s1.9 4.3 4.3 4.3h186.7c14.5 0 26.2-11.8 26.2-26.2 0-2.5-1.9-4.4-4.3-4.4zM457.2 149.3c-14.5 0-26.2 11.8-26.2 26.2 0 14.5 11.8 26.2 26.2 26.2 14.5 0 26.2-11.8 26.2-26.2 0-14.4-11.8-26.2-26.2-26.2z m0 43.9c-9.8 0-17.7-7.9-17.7-17.7 0-9.8 7.9-17.7 17.7-17.7 9.8 0 17.7 8 17.7 17.7 0 9.8-7.9 17.7-17.7 17.7zM578 358h-33c-8.4 0-15.2 6.8-15.2 15.2v54.9c0 2.3 1.9 4.3 4.3 4.3s4.3-1.9 4.3-4.3v-54.9c0-3.7 3-6.7 6.7-6.7H578c2.3 0 4.3-1.9 4.3-4.3s-2-4.2-4.3-4.2zM731.7 358h-87.9c-2.3 0-4.3 1.9-4.3 4.3s1.9 4.3 4.3 4.3h87.9c3.7 0 6.7 3 6.7 6.7V636.8c0 9.8-7.9 17.7-17.7 17.7H556c-9.8 0-17.7-7.9-17.7-17.7v-54.9c0-2.3-1.9-4.3-4.3-4.3s-4.3 1.9-4.3 4.3v54.9c0 14.5 11.8 26.2 26.2 26.2h164.7c14.5 0 26.2-11.8 26.2-26.2v-263.6c0.2-8.4-6.7-15.2-15.1-15.2zM676.8 654.5c-2.3 0-4.3 1.9-4.3 4.3v61.7h-68.4v-17.7c0-2.3-1.9-4.3-4.3-4.3s-4.3 1.9-4.3 4.3v22c0 2.3 1.9 4.3 4.3 4.3h76.9c2.3 0 4.3-1.9 4.3-4.3v-65.9c0.1-2.5-1.8-4.4-4.2-4.4zM698.8 720.4H578c-2.3 0-4.3 1.9-4.3 4.3s1.9 4.3 4.3 4.3h120.8c2.3 0 4.3-1.9 4.3-4.3s-2-4.3-4.3-4.3zM709.8 303.1H567c-2.3 0-4.3 1.9-4.3 4.3v54.9c0 2.3 1.9 4.3 4.3 4.3s4.3-1.9 4.3-4.3v-50.7h134.3v50.7c0 2.3 1.9 4.3 4.3 4.3s4.3-1.9 4.3-4.3v-54.9c-0.2-2.4-2.1-4.3-4.4-4.3zM676.8 226.2H600c-2.3 0-4.3 1.9-4.3 4.3v76.9c0 2.3 1.9 4.3 4.3 4.3s4.3-1.9 4.3-4.3v-72.6h68.4v72.6c0 2.3 1.9 4.3 4.3 4.3s4.3-1.9 4.3-4.3v-76.9c-0.2-2.4-2.1-4.3-4.5-4.3zM687.8 434.9c-2.3 0-4.3 1.9-4.3 4.3V581.9c0 2.3 1.9 4.3 4.3 4.3s4.3-1.9 4.3-4.3v-142.8c0-2.3-1.9-4.2-4.3-4.2z"  horiz-adv-x="1024" />
      
      <glyph glyph-name="xiuzhengdai" unicode="&#59185;" d="M696.8 298.4c-42.2 0-76.5 34.3-76.5 76.5s34.3 76.5 76.5 76.5 76.5-34.3 76.5-76.5-34.3-76.5-76.5-76.5z m0 144.6c-37.5 0-68-30.5-68-68s30.5-68 68-68 68 30.5 68 68-30.5 68-68 68zM696.8 151c-59.8 0-116 23.3-158.3 65.6-42.3 42.3-65.6 98.5-65.6 158.3s23.3 116 65.6 158.3c42.3 42.3 98.5 65.6 158.3 65.6s116-23.3 158.3-65.6c42.3-42.3 65.6-98.5 65.6-158.3s-23.3-116-65.6-158.3c-42.3-42.3-98.5-65.6-158.3-65.6z m0 439.3c-57.5 0-111.6-22.4-152.3-63.1-40.7-40.7-63.1-94.8-63.1-152.3s22.4-111.6 63.1-152.3c40.7-40.7 94.8-63.1 152.3-63.1s111.6 22.4 152.3 63.1c40.7 40.7 63.1 94.8 63.1 152.3s-22.4 111.6-63.1 152.3c-40.7 40.7-94.8 63.1-152.3 63.1zM631.4 146.4c-24.6 0-53.6 1.1-86 4-60.4 5.5-123.8 16.4-188.2 32.4-80.6 20-163.1 48.2-245.4 83.6-3.9 1.7-6.3 5.3-6.4 9.6-0.1 4.2 2.2 7.9 6.1 9.7 141.6 67 190.2 113.6 201.7 126.3 16.7 18.4 27 34 36.2 47.9 20.4 30.8 33.9 51.1 93.3 58.3 9 1.1 16.9 2 23.8 2.8 54.6 6.2 54.6 6.2 108.7 41.9l5.8 3.8c2 1.3 4.6 0.7 5.9-1.2 1.3-2 0.7-4.6-1.2-5.9l-5.8-3.8c-55.2-36.4-56.3-36.8-112.4-43.2-7-0.8-14.8-1.7-23.8-2.8-55.5-6.7-66.8-23.7-87.3-54.5-8.9-13.4-19.9-30-37-48.9-19.9-22-55.3-47.7-105.1-76.5-40.2-23.2-79.5-42.4-99.4-51.8-1.1-0.5-1.2-1.5-1.2-1.9 0-0.4 0.1-1.4 1.3-1.9 81.8-35.2 163.8-63.2 243.8-83.1 64-15.9 126.9-26.8 186.8-32.2 81.7-7.4 141.5-2.9 161.8 0.5 2.3 0.4 4.5-1.2 4.9-3.5s-1.2-4.5-3.5-4.9c-12.3-2.1-39.5-4.7-77.4-4.7zM173.1 241.5c-2.1 0-3.9 1.5-4.2 3.7-3.7 26.4-0.2 65.5 0 67.1 0.2 2.3 2.3 4.1 4.6 3.8 2.3-0.2 4.1-2.3 3.8-4.6 0-0.4-3.6-39.7 0-65.2 0.3-2.3-1.3-4.5-3.6-4.8h-0.6zM564.6 149.9c-2 0-3.8 1.4-4.2 3.5 0 0.1-2.6 13.2-12 26.9-12.4 18.2-30.3 28.9-53.1 31.9-59.6 7.8-91.4 22-141.7 63.4-54.6 44.9-63.5 109.3-63.8 112.1-0.3 2.3 1.3 4.5 3.7 4.8 2.3 0.3 4.5-1.3 4.8-3.7 0.1-0.8 9-63.9 60.8-106.6 48.8-40.2 79.6-54 137.4-61.5 31.7-4.1 49.7-21.7 59.2-35.8 10.3-15.2 13.1-29.3 13.2-29.8 0.4-2.3-1.1-4.5-3.4-5-0.4-0.2-0.7-0.2-0.9-0.2z"  horiz-adv-x="1024" />
      
      <glyph glyph-name="yuangui" unicode="&#59186;" d="M513.2 490.7c-50.5 0-91.5 41.1-91.5 91.5s41.1 91.5 91.5 91.5 91.5-41.1 91.5-91.5-41-91.5-91.5-91.5z m0 174.6c-45.8 0-83-37.3-83-83s37.3-83 83-83c45.8 0 83 37.3 83 83s-37.2 83-83 83zM513.2 549.2c-18.2 0-33 14.8-33 33s14.8 33 33 33 33-14.8 33-33-14.8-33-33-33z m0 57.6c-13.5 0-24.5-11-24.5-24.5s11-24.5 24.5-24.5 24.5 11 24.5 24.5-11 24.5-24.5 24.5zM797.5 207.8c-25.3 0-45.9 20.6-45.9 45.9 0 25.3 20.6 45.9 45.9 45.9s45.9-20.6 45.9-45.9c0-25.4-20.6-45.9-45.9-45.9z m0 83.2c-20.6 0-37.4-16.8-37.4-37.4s16.8-37.4 37.4-37.4 37.4 16.8 37.4 37.4-16.8 37.4-37.4 37.4zM225.2 207.8c-25.3 0-45.9 20.6-45.9 45.9 0 25.3 20.6 45.9 45.9 45.9s45.9-20.6 45.9-45.9c-0.1-25.4-20.7-45.9-45.9-45.9z m0 83.2c-20.6 0-37.4-16.8-37.4-37.4s16.8-37.4 37.4-37.4 37.4 16.8 37.4 37.4-16.8 37.4-37.4 37.4zM513.2 665.3c-2.3 0-4.3 1.9-4.3 4.3v65.3c0 2.3 1.9 4.3 4.3 4.3 2.3 0 4.3-1.9 4.3-4.3v-65.3c-0.1-2.4-2-4.3-4.3-4.3zM678.5 29.4c-1.7 0-3.4 1.1-4 2.8L513 482.9 334.6 32c-0.9-2.2-3.3-3.3-5.5-2.4-2.2 0.9-3.3 3.3-2.4 5.5l182.5 461.4c0.7 1.6 2.3 2.7 4 2.7 1.8 0 3.3-1.2 3.9-2.8L682.5 35c0.8-2.2-0.4-4.6-2.6-5.4-0.5-0.2-1-0.2-1.4-0.2zM352.3 84c-0.8 0-1.5 0.2-2.2 0.6-27.6 17.2-36.8 40.3-39.7 56.7-3.1 17.7 0.4 31.3 0.5 31.9 0 0.1 0.1 0.3 0.1 0.4l133.2 351.9c0.8 2.2 3.3 3.3 5.5 2.5 2.2-0.8 3.3-3.3 2.5-5.5L319 170.9c-0.4-1.6-2.9-13.5-0.3-28.5 3.8-21.2 15.8-38.2 35.7-50.6 2-1.2 2.6-3.9 1.4-5.9-0.7-1.2-2.1-1.9-3.5-1.9zM674 84c-1.4 0-2.8 0.7-3.6 2-1.2 2-0.6 4.6 1.4 5.9 46.2 28.7 36.3 75.7 35.5 79.1L574.1 522.6c-0.8 2.2 0.3 4.7 2.5 5.5 2.2 0.8 4.7-0.3 5.5-2.5l133.2-351.9c0.1-0.1 0.1-0.3 0.1-0.4 0.1-0.6 3.6-14.2 0.5-31.9-2.8-16.4-12-39.6-39.7-56.7-0.6-0.5-1.4-0.7-2.2-0.7zM345.8 249.4h-79c-2.3 0-4.3 1.9-4.3 4.3s1.9 4.3 4.3 4.3h79c2.3 0 4.3-1.9 4.3-4.3s-1.9-4.3-4.3-4.3zM755.9 249.4h-75.4c-2.3 0-4.3 1.9-4.3 4.3s1.9 4.3 4.3 4.3h75.4c2.3 0 4.3-1.9 4.3-4.3s-2-4.3-4.3-4.3zM600.5 249.4H417.7c-2.3 0-4.3 1.9-4.3 4.3s1.9 4.3 4.3 4.3h182.8c2.3 0 4.3-1.9 4.3-4.3s-2-4.3-4.3-4.3zM513.2 191.8c-2.3 0-4.3 1.9-4.3 4.3v110c0 2.3 1.9 4.3 4.3 4.3 2.3 0 4.3-1.9 4.3-4.3V196c-0.1-2.3-2-4.2-4.3-4.2z"  horiz-adv-x="1024" />
      
      <glyph glyph-name="zhichi" unicode="&#59187;" d="M346.4 97.5H215.8c-2.3 0-4.3 1.9-4.3 4.3V681.2c0 4.4 3.6 8 8 8h123.1c4.4 0 8-3.6 8-8v-579.5c0-2.3-1.9-4.2-4.2-4.2zM220.1 106h122.1V680.7H220.1V106zM743.8 326.3c-1.9 0-3.7 0.8-4.9 2.4L555.9 570c-2.7 3.5-2 8.5 1.5 11.2l98.1 74.4c1.7 1.3 3.8 1.8 5.9 1.5 2.1-0.3 4-1.4 5.3-3.1l183-241.3c1-1.3 1.4-2.9 1.2-4.6-0.2-1.6-1.1-3.1-2.4-4.1l-101-76.6c-1.1-0.7-2.4-1.1-3.7-1.1zM563 574.8l181.2-239 97.3 73.7-181.2 239-97.3-73.7z m280.4-163.9zM281.1 598.4c-11.2 0-20.4 9.1-20.4 20.4 0 11.2 9.1 20.4 20.4 20.4s20.4-9.1 20.4-20.4c0-11.3-9.2-20.4-20.4-20.4z m0 32.2c-6.5 0-11.9-5.3-11.9-11.9s5.3-11.9 11.9-11.9 11.9 5.3 11.9 11.9-5.4 11.9-11.9 11.9zM345 545.2h-56.3c-2.3 0-4.3 1.9-4.3 4.3s1.9 4.3 4.3 4.3H345c2.3 0 4.3-1.9 4.3-4.3s-1.9-4.3-4.3-4.3zM345 524h-32.3c-2.3 0-4.3 1.9-4.3 4.3s1.9 4.3 4.3 4.3H345c2.3 0 4.3-1.9 4.3-4.3s-1.9-4.3-4.3-4.3zM345 502.7h-32.3c-2.3 0-4.3 1.9-4.3 4.3s1.9 4.3 4.3 4.3H345c2.3 0 4.3-1.9 4.3-4.3s-1.9-4.3-4.3-4.3zM345 481.5h-32.3c-2.3 0-4.3 1.9-4.3 4.3s1.9 4.3 4.3 4.3H345c2.3 0 4.3-1.9 4.3-4.3s-1.9-4.3-4.3-4.3zM345 460.3h-56.3c-2.3 0-4.3 1.9-4.3 4.3s1.9 4.3 4.3 4.3H345c2.3 0 4.3-1.9 4.3-4.3s-1.9-4.3-4.3-4.3zM345 439h-32.3c-2.3 0-4.3 1.9-4.3 4.3s1.9 4.3 4.3 4.3H345c2.3 0 4.3-1.9 4.3-4.3s-1.9-4.3-4.3-4.3zM345 417.8h-32.3c-2.3 0-4.3 1.9-4.3 4.3s1.9 4.3 4.3 4.3H345c2.3 0 4.3-1.9 4.3-4.3s-1.9-4.3-4.3-4.3zM345 396.6h-32.3c-2.3 0-4.3 1.9-4.3 4.3s1.9 4.3 4.3 4.3H345c2.3 0 4.3-1.9 4.3-4.3s-1.9-4.3-4.3-4.3zM345 375.3h-56.3c-2.3 0-4.3 1.9-4.3 4.3s1.9 4.3 4.3 4.3H345c2.3 0 4.3-1.9 4.3-4.3s-1.9-4.3-4.3-4.3zM345 354.1h-32.3c-2.3 0-4.3 1.9-4.3 4.3s1.9 4.3 4.3 4.3H345c2.3 0 4.3-1.9 4.3-4.3s-1.9-4.3-4.3-4.3zM345 332.9h-32.3c-2.3 0-4.3 1.9-4.3 4.3s1.9 4.3 4.3 4.3H345c2.3 0 4.3-1.9 4.3-4.3s-1.9-4.3-4.3-4.3zM345 311.6h-32.3c-2.3 0-4.3 1.9-4.3 4.3s1.9 4.3 4.3 4.3H345c2.3 0 4.3-1.9 4.3-4.3s-1.9-4.3-4.3-4.3zM345 290.4h-56.3c-2.3 0-4.3 1.9-4.3 4.3s1.9 4.3 4.3 4.3H345c2.3 0 4.3-1.9 4.3-4.3s-1.9-4.3-4.3-4.3zM345 269.1h-32.3c-2.3 0-4.3 1.9-4.3 4.3s1.9 4.3 4.3 4.3H345c2.3 0 4.3-1.9 4.3-4.3s-1.9-4.3-4.3-4.3zM345 247.9h-32.3c-2.3 0-4.3 1.9-4.3 4.3s1.9 4.3 4.3 4.3H345c2.3 0 4.3-1.9 4.3-4.3s-1.9-4.3-4.3-4.3zM345 226.7h-32.3c-2.3 0-4.3 1.9-4.3 4.3s1.9 4.3 4.3 4.3H345c2.3 0 4.3-1.9 4.3-4.3s-1.9-4.3-4.3-4.3zM345 205.5h-56.3c-2.3 0-4.3 1.9-4.3 4.3s1.9 4.3 4.3 4.3H345c2.3 0 4.3-1.9 4.3-4.3s-1.9-4.3-4.3-4.3zM345 184.2h-32.3c-2.3 0-4.3 1.9-4.3 4.3s1.9 4.3 4.3 4.3H345c2.3 0 4.3-1.9 4.3-4.3s-1.9-4.3-4.3-4.3zM345 163h-32.3c-2.3 0-4.3 1.9-4.3 4.3s1.9 4.3 4.3 4.3H345c2.3 0 4.3-1.9 4.3-4.3s-1.9-4.3-4.3-4.3zM345 141.8h-32.3c-2.3 0-4.3 1.9-4.3 4.3s1.9 4.3 4.3 4.3H345c2.3 0 4.3-1.9 4.3-4.3s-1.9-4.3-4.3-4.3zM345 120.5h-56.3c-2.3 0-4.3 1.9-4.3 4.3s1.9 4.3 4.3 4.3H345c2.3 0 4.3-1.9 4.3-4.3s-1.9-4.3-4.3-4.3zM448.9 545.2h-56.3c-2.3 0-4.3 1.9-4.3 4.3s1.9 4.3 4.3 4.3h56.3c2.3 0 4.3-1.9 4.3-4.3s-1.9-4.3-4.3-4.3zM424.9 524h-32.3c-2.3 0-4.3 1.9-4.3 4.3s1.9 4.3 4.3 4.3h32.3c2.3 0 4.3-1.9 4.3-4.3s-1.9-4.3-4.3-4.3zM424.9 502.7h-32.3c-2.3 0-4.3 1.9-4.3 4.3s1.9 4.3 4.3 4.3h32.3c2.3 0 4.3-1.9 4.3-4.3s-1.9-4.3-4.3-4.3zM424.9 481.5h-32.3c-2.3 0-4.3 1.9-4.3 4.3s1.9 4.3 4.3 4.3h32.3c2.3 0 4.3-1.9 4.3-4.3s-1.9-4.3-4.3-4.3zM448.9 460.3h-56.3c-2.3 0-4.3 1.9-4.3 4.3s1.9 4.3 4.3 4.3h56.3c2.3 0 4.3-1.9 4.3-4.3s-1.9-4.3-4.3-4.3zM424.9 439h-32.3c-2.3 0-4.3 1.9-4.3 4.3s1.9 4.3 4.3 4.3h32.3c2.3 0 4.3-1.9 4.3-4.3s-1.9-4.3-4.3-4.3zM424.9 417.8h-32.3c-2.3 0-4.3 1.9-4.3 4.3s1.9 4.3 4.3 4.3h32.3c2.3 0 4.3-1.9 4.3-4.3s-1.9-4.3-4.3-4.3zM424.9 396.6h-32.3c-2.3 0-4.3 1.9-4.3 4.3s1.9 4.3 4.3 4.3h32.3c2.3 0 4.3-1.9 4.3-4.3s-1.9-4.3-4.3-4.3zM448.9 375.3h-56.3c-2.3 0-4.3 1.9-4.3 4.3s1.9 4.3 4.3 4.3h56.3c2.3 0 4.3-1.9 4.3-4.3s-1.9-4.3-4.3-4.3zM424.9 354.1h-32.3c-2.3 0-4.3 1.9-4.3 4.3s1.9 4.3 4.3 4.3h32.3c2.3 0 4.3-1.9 4.3-4.3s-1.9-4.3-4.3-4.3zM424.9 332.9h-32.3c-2.3 0-4.3 1.9-4.3 4.3s1.9 4.3 4.3 4.3h32.3c2.3 0 4.3-1.9 4.3-4.3s-1.9-4.3-4.3-4.3zM424.9 311.6h-32.3c-2.3 0-4.3 1.9-4.3 4.3s1.9 4.3 4.3 4.3h32.3c2.3 0 4.3-1.9 4.3-4.3s-1.9-4.3-4.3-4.3zM448.9 290.4h-56.3c-2.3 0-4.3 1.9-4.3 4.3s1.9 4.3 4.3 4.3h56.3c2.3 0 4.3-1.9 4.3-4.3s-1.9-4.3-4.3-4.3zM424.9 269.1h-32.3c-2.3 0-4.3 1.9-4.3 4.3s1.9 4.3 4.3 4.3h32.3c2.3 0 4.3-1.9 4.3-4.3s-1.9-4.3-4.3-4.3zM424.9 247.9h-32.3c-2.3 0-4.3 1.9-4.3 4.3s1.9 4.3 4.3 4.3h32.3c2.3 0 4.3-1.9 4.3-4.3s-1.9-4.3-4.3-4.3zM424.9 226.7h-32.3c-2.3 0-4.3 1.9-4.3 4.3s1.9 4.3 4.3 4.3h32.3c2.3 0 4.3-1.9 4.3-4.3s-1.9-4.3-4.3-4.3zM448.9 205.5h-56.3c-2.3 0-4.3 1.9-4.3 4.3s1.9 4.3 4.3 4.3h56.3c2.3 0 4.3-1.9 4.3-4.3s-1.9-4.3-4.3-4.3zM424.9 184.2h-32.3c-2.3 0-4.3 1.9-4.3 4.3s1.9 4.3 4.3 4.3h32.3c2.3 0 4.3-1.9 4.3-4.3s-1.9-4.3-4.3-4.3zM424.9 163h-32.3c-2.3 0-4.3 1.9-4.3 4.3s1.9 4.3 4.3 4.3h32.3c2.3 0 4.3-1.9 4.3-4.3s-1.9-4.3-4.3-4.3zM424.9 141.8h-32.3c-2.3 0-4.3 1.9-4.3 4.3s1.9 4.3 4.3 4.3h32.3c2.3 0 4.3-1.9 4.3-4.3s-1.9-4.3-4.3-4.3zM448.9 120.5h-56.3c-2.3 0-4.3 1.9-4.3 4.3s1.9 4.3 4.3 4.3h56.3c2.3 0 4.3-1.9 4.3-4.3s-1.9-4.3-4.3-4.3zM825.8 97.5H392.7c-2.3 0-4.3 1.9-4.3 4.3V701.5c0 1.8 1.2 3.5 2.9 4 1.8 0.6 3.7-0.1 4.8-1.6l433.2-599.8c0.9-1.3 1.1-3 0.3-4.4-0.7-1.3-2.2-2.2-3.8-2.2zM396.9 106h420.6L396.9 688.4V106zM684.1 187.9H499.5c-2.3 0-4.3 1.9-4.3 4.3V429c0 1.8 1.2 3.4 2.9 4 1.7 0.6 3.6 0 4.7-1.4l184.6-236.9c1-1.3 1.2-3 0.5-4.5s-2.2-2.3-3.8-2.3z m-180.3 8.5h171.7L503.8 416.6v-220.2zM596.5 519.3c-1.3 0-2.6 0.6-3.4 1.7-1.4 1.9-1.1 4.5 0.8 6l104 78.9c1.9 1.4 4.5 1.1 6-0.8 1.4-1.9 1.1-4.5-0.8-6l-104-78.9c-0.8-0.6-1.7-0.9-2.6-0.9z"  horiz-adv-x="1024" />
      
      <glyph glyph-name="zidian" unicode="&#59188;" d="M780.7 51.9h-482c-35.7 0-64.7 29-64.7 64.7s29 64.7 64.7 64.7H767c2.3 0 4.3-1.9 4.3-4.3s-1.9-4.3-4.3-4.3c-43.4 0-52.5-31.9-52.5-58.7 0-11.7 7.1-24.9 19-35.5 13.2-11.7 30-18.2 47.1-18.2 2.3 0 4.3-1.9 4.3-4.3s-1.8-4.1-4.2-4.1zM298.8 172.7c-31 0-56.2-25.2-56.2-56.2s25.2-56.2 56.2-56.2h446.6c-6.2 3.1-12 7.1-17.4 11.8-13.8 12.2-22 27.9-22 41.9 0 28.3 9.2 48.2 26.5 58.7H298.8zM238.3 112.3c-2.3 0-4.3 1.9-4.3 4.3v574c0 14.3 11.6 25.9 25.9 25.9h506c14.3 0 25.9-11.6 25.9-25.9v-492c0-14.3-11.6-25.9-25.9-25.9H296.5c-8.8 0-22.5-3.6-34.6-13.8-8.8-7.5-19.3-20.9-19.3-42.4 0-2.3-1.9-4.2-4.3-4.2zM260 708c-9.6 0-17.4-7.8-17.4-17.4v-541.5c4.1 7 9.2 12.4 13.8 16.3 11.5 9.8 26.9 15.8 40.1 15.8H766c9.6 0 17.4 7.8 17.4 17.4v492c0 9.6-7.8 17.4-17.4 17.4H260zM339.9 172.7c-2.3 0-4.3 1.9-4.3 4.3V712.3c0 2.3 1.9 4.3 4.3 4.3s4.3-1.9 4.3-4.3V177c0-2.3-1.9-4.3-4.3-4.3zM632.4 527.2c-1.1 0-2.2 0.4-3 1.2l-52.1 52.1-61.6-52.3c-1.3-1.1-3-1.3-4.5-0.6-1.5 0.7-2.5 2.2-2.5 3.9V712.3c0 2.3 1.9 4.3 4.3 4.3 2.3 0 4.3-1.9 4.3-4.3v-171.6l57.6 48.9c1.7 1.4 4.2 1.3 5.8-0.2l47.6-47.6V712.3c0 2.3 1.9 4.3 4.3 4.3s4.3-1.9 4.3-4.3v-180.8c0-1.7-1-3.3-2.6-3.9-0.8-0.3-1.3-0.4-1.9-0.4z"  horiz-adv-x="1024" />
      
      <glyph glyph-name="iPAD" unicode="&#59189;" d="M790 60H232.7c-4.8 0-8.7 3.9-8.7 8.7V676.4c0 4.8 3.9 8.7 8.7 8.7H790c4.8 0 8.7-3.9 8.7-8.7v-607.7c0-4.8-3.9-8.7-8.7-8.7zM232.7 676.5c-0.1 0-0.2-0.1-0.2-0.2v-607.7c0-0.1 0.1-0.2 0.2-0.2H790c0.1 0 0.2 0.1 0.2 0.2V676.4c0 0.1-0.1 0.2-0.2 0.2H232.7zM732.4 155.9H290.2c-2.3 0-4.3 1.9-4.3 4.3V622.9c0 2.3 1.9 4.3 4.3 4.3h442.2c2.3 0 4.3-1.9 4.3-4.3v-462.7c0-2.4-1.9-4.3-4.3-4.3z m-437.9 8.5h433.7V618.6H294.5v-454.2zM511.3 87.7c-14.8 0-26.9 12.1-26.9 26.9s12.1 26.9 26.9 26.9c14.8 0 26.9-12.1 26.9-26.9s-12-26.9-26.9-26.9z m0 45.3c-10.1 0-18.4-8.3-18.4-18.4s8.3-18.4 18.4-18.4c10.1 0 18.4 8.3 18.4 18.4s-8.2 18.4-18.4 18.4zM688.4 582.1h-352c-2.3 0-4.3 1.9-4.3 4.3s1.9 4.3 4.3 4.3h352c2.3 0 4.3-1.9 4.3-4.3s-1.9-4.3-4.3-4.3zM688.4 541.4h-352c-2.3 0-4.3 1.9-4.3 4.3s1.9 4.3 4.3 4.3h352c2.3 0 4.3-1.9 4.3-4.3s-1.9-4.3-4.3-4.3zM688.4 500.6h-352c-2.3 0-4.3 1.9-4.3 4.3s1.9 4.3 4.3 4.3h352c2.3 0 4.3-1.9 4.3-4.3s-1.9-4.3-4.3-4.3zM561 459.9H336.4c-2.3 0-4.3 1.9-4.3 4.3s1.9 4.3 4.3 4.3H561c2.3 0 4.3-1.9 4.3-4.3s-2-4.3-4.3-4.3zM561 419.2H336.4c-2.3 0-4.3 1.9-4.3 4.3s1.9 4.3 4.3 4.3H561c2.3 0 4.3-1.9 4.3-4.3s-2-4.3-4.3-4.3zM561 378.5H336.4c-2.3 0-4.3 1.9-4.3 4.3 0 2.3 1.9 4.3 4.3 4.3H561c2.3 0 4.3-1.9 4.3-4.3-0.1-2.4-2-4.3-4.3-4.3zM688.4 459.9H585.9c-2.3 0-4.3 1.9-4.3 4.3s1.9 4.3 4.3 4.3h102.5c2.3 0 4.3-1.9 4.3-4.3s-1.9-4.3-4.3-4.3zM688.4 419.2H585.9c-2.3 0-4.3 1.9-4.3 4.3s1.9 4.3 4.3 4.3h102.5c2.3 0 4.3-1.9 4.3-4.3s-1.9-4.3-4.3-4.3zM688.4 378.5H585.9c-2.3 0-4.3 1.9-4.3 4.3 0 2.3 1.9 4.3 4.3 4.3h102.5c2.3 0 4.3-1.9 4.3-4.3s-1.9-4.3-4.3-4.3z"  horiz-adv-x="1024" />
      
      <glyph glyph-name="usb" unicode="&#59190;" d="M442.7 79.5c-2.4 0-4.7 0.9-6.5 2.7L210.1 308.3c-1.7 1.7-2.7 4.1-2.7 6.5 0 2.5 1 4.8 2.7 6.5l449.9 450c3.6 3.6 9.4 3.6 13 0l226.1-226.1c3.6-3.6 3.6-9.4 0-13l-449.9-450c-1.8-1.8-4.1-2.7-6.5-2.7z m223.8 686c-0.2 0-0.4-0.1-0.5-0.2l-449.9-450c-0.2-0.2-0.2-0.4-0.2-0.5 0-0.1 0-0.3 0.2-0.5l226.1-226.1c0.3-0.3 0.7-0.3 1 0l449.9 449.9c0.3 0.3 0.3 0.7 0 1L667 765.3c-0.1 0.1-0.3 0.2-0.5 0.2z m229.6-230.4zM275.7 21.7c-1.1 0-2.2 0.4-3 1.2L154.5 141.2c-1.7 1.7-1.7 4.4 0 6l111.3 111.3c0.8 0.8 1.9 1.2 3 1.2s2.2-0.4 3-1.2L390 140.3c0.8-0.8 1.2-1.9 1.2-3s-0.4-2.2-1.2-3L278.7 23c-0.8-0.8-1.9-1.3-3-1.3zM163.5 144.2L275.7 32 381 137.3 268.9 249.5 163.5 144.2zM245.9 134.7c-1.1 0-2.2 0.4-3 1.2L214.8 164c-1.7 1.7-1.7 4.4 0 6l28.1 28.1c1.7 1.7 4.4 1.7 6 0L277 170c0.8-0.8 1.2-1.9 1.2-3s-0.4-2.2-1.2-3l-28.1-28c-0.8-0.8-1.8-1.3-3-1.3z m-22.1 32.4l22.1-22.1 22.1 22.1-22.1 22.1-22.1-22.1zM294.2 86.4c-1.1 0-2.2 0.4-3 1.2l-28.1 28.1c-1.7 1.7-1.7 4.4 0 6l28.1 28.1c0.8 0.8 1.9 1.2 3 1.2s2.2-0.4 3-1.2l28.1-28.1c0.8-0.8 1.2-1.9 1.2-3s-0.4-2.2-1.2-3l-28.1-28.1c-0.8-0.7-1.9-1.2-3-1.2z m-22.1 32.4l22.1-22.1 22.1 22.1-22.1 22.1-22.1-22.1zM458.6 226.6c-2.3 0-4.5 0.9-6.2 2.5l-91.8 91.8c-1.6 1.6-2.5 3.8-2.5 6.2 0 2.3 0.9 4.5 2.5 6.2L644.4 617c1.6 1.6 3.8 2.5 6.2 2.5 2.3 0 4.5-0.9 6.2-2.5l91.8-91.8c3.4-3.4 3.4-8.9 0-12.3L464.8 229.2c-1.7-1.7-3.9-2.6-6.2-2.6z m192 384.4h-0.1L366.7 327.2c-0.1-0.1-0.1-0.2 0-0.3l91.8-91.8c0.1-0.1 0.2-0.1 0.3 0l283.8 283.8c0.1 0.1 0.1 0.2 0 0.3L650.7 611h-0.1z m94.9-95.1z"  horiz-adv-x="1024" />
      
      <glyph glyph-name="renyuanxinxi" unicode="&#59089;" d="M501.12 394.666667A207.146667 207.146667 0 0 1 533.333333 682.666667a199.893333 199.893333 0 0 1-283.093333 32.426666A206.72 206.72 0 0 1 217.813333 426.666667a202.453333 202.453333 0 0 1 34.346667-34.56A341.333333 341.333333 0 0 1 42.666667 77.653333V42.666667a33.706667 33.706667 0 0 1 33.28-34.133334h603.946666a33.706667 33.706667 0 0 1 33.493334 34.133334v34.986666a338.56 338.56 0 0 1-212.266667 317.013334zM241.706667 554.666667a134.4 134.4 0 1 0 137.173333-135.893334h-4.266667A135.253333 135.253333 0 0 0 241.706667 554.666667zM110.293333 76.8v1.28a270.933333 270.933333 0 0 0 264.32 272.213333h6.186667a270.506667 270.506667 0 0 0 266.666667-272.213333l-537.173334-1.28z m837.333334 476.586667H658.346667a33.92 33.92 0 0 0 0 67.84h289.28a33.92 33.92 0 0 0 0-67.84z m0-170.666667H718.506667a33.92 33.92 0 0 0 0 67.626667h229.12A33.706667 33.706667 0 0 0 981.333333 417.493333 33.28 33.28 0 0 0 948.266667 384z m0-170.666667h-160.213334a33.92 33.92 0 0 0 0 67.626667h160.853334a33.92 33.92 0 0 0 0-67.626667z"  horiz-adv-x="1024" />
      
      <glyph glyph-name="xiangguanfangrenyuan" unicode="&#59091;" d="M501.12 394.666667A207.146667 207.146667 0 0 1 533.333333 682.666667a199.893333 199.893333 0 0 1-283.093333 32.426666A206.72 206.72 0 0 1 217.813333 426.666667a202.453333 202.453333 0 0 1 34.346667-34.56A341.333333 341.333333 0 0 1 42.666667 77.653333V42.666667a33.706667 33.706667 0 0 1 33.28-34.133334h603.946666a33.706667 33.706667 0 0 1 33.493334 34.133334v34.986666a338.56 338.56 0 0 1-212.266667 317.013334zM241.706667 554.666667a134.4 134.4 0 1 0 137.173333-135.893334h-4.266667A135.253333 135.253333 0 0 0 241.706667 554.666667zM110.293333 76.8v1.28a270.933333 270.933333 0 0 0 264.32 272.213333h6.186667a270.506667 270.506667 0 0 0 266.666667-272.213333l-537.173334-1.28zM948.266667 14.72a32 32 0 0 0-32.853334 32.853333 273.28 273.28 0 0 1-234.666666 272.426667 32 32 0 0 0-32.853334 32.853333 39.893333 39.893333 0 0 0 32.853334 37.546667 154.88 154.88 0 0 1 112.64 145.493333 150.613333 150.613333 0 0 1-112.64 145.28c-14.08 4.693333-28.16 14.08-28.16 28.16A29.013333 29.013333 0 0 0 661.333333 741.973333a31.146667 31.146667 0 0 0 32.853334 9.386667 218.666667 218.666667 0 0 0 154.88-168.746667 232.32 232.32 0 0 0-75.093334-215.893333 341.333333 341.333333 0 0 0 206.506667-320 35.84 35.84 0 0 0-9.386667-23.466667c-9.386667-4.693333-14.08-9.386667-23.466666-9.386666z"  horiz-adv-x="1024" />
      
      <glyph glyph-name="a-20-huiyiqiandao" unicode="&#59109;" d="M617.173333 359.253333l-142.08-142.293333-68.053333 67.626667A35.626667 35.626667 0 0 1 356.693333 234.666667l93.44-92.586667a35.413333 35.413333 0 0 1 50.133334 0l167.466666 167.253333a35.626667 35.626667 0 0 1-50.346666 50.346667zM903.04 756.693333h-172.8v18.346667a35.626667 35.626667 0 1 1-71.04 0v-18.346667H370.773333v18.346667a35.626667 35.626667 0 1 1-71.04 0v-18.346667H120.96A35.626667 35.626667 0 0 1 85.333333 721.066667v-728.106667A35.626667 35.626667 0 0 1 120.96-42.666667h782.08A35.626667 35.626667 0 0 1 938.666667-7.04V721.066667a35.626667 35.626667 0 0 1-35.626667 35.626666zM299.733333 685.44v-18.133333a35.626667 35.626667 0 1 1 71.04 0v18.133333H659.2v-18.133333a35.626667 35.626667 0 1 1 71.04 0v18.133333h137.386667v-142.08H156.373333V685.44z m-143.36-657.066667v443.733334h711.253334v-443.733334z"  horiz-adv-x="1024" />
      
      <glyph glyph-name="a-18-wodeziliao" unicode="&#59111;" d="M834.346667 713.6H832V816.213333A37.12 37.12 0 0 1 794.88 853.333333H231.466667a94.72 94.72 0 0 1-94.72-94.72V14.933333a100.48 100.48 0 0 1 100.266666-100.266666h581.546667a68.906667 68.906667 0 0 1 68.693333 68.693333V661.333333a53.12 53.12 0 0 1-52.906666 52.266667zM208.853333 758.613333a22.826667 22.826667 0 0 0 22.613334 22.613334h528.426666v-67.626667H208.853333z m606.293334-771.84h-578.133334a28.16 28.16 0 0 0-28.16 28.16V641.493333h606.293334zM644.906667 503.04H294.613333a36.053333 36.053333 0 0 1 0-72.106667h350.293334a36.053333 36.053333 0 1 1 0 72.106667zM490.666667 349.226667h-193.706667a36.053333 36.053333 0 0 1 0-72.106667H490.666667a36.053333 36.053333 0 0 1 0 72.106667z"  horiz-adv-x="1024" />
      
      <glyph glyph-name="a-17-zaixianxuexi" unicode="&#59112;" d="M928.213333 783.573333a32 32 0 0 1-25.173333 10.88h-87.04a672.426667 672.426667 0 0 0-82.773333 6.4c-60.373333 7.04-123.306667 14.293333-185.813334-11.52L512 773.973333l-49.706667 21.333334C400.213333 818.773333 338.133333 810.666667 277.333333 802.773333a674.133333 674.133333 0 0 0-82.773333-7.466666H120.746667A36.053333 36.053333 0 0 1 85.333333 758.826667v-702.506667a36.266667 36.266667 0 0 1 35.413334-36.266667h76.586666c99.84 1.92 193.92 3.413333 275.413334-46.08l21.333333-12.8h1.066667l6.186666-2.56h2.133334a28.16 28.16 0 0 1 8.533333-1.28 32.426667 32.426667 0 0 1 8.96 1.28h2.133333a24.32 24.32 0 0 1 7.253334 3.2C620.373333 21.333333 727.253333 21.333333 839.893333 19.626667h62.293334A36.266667 36.266667 0 0 1 938.666667 55.466667V757.333333a36.693333 36.693333 0 0 1-10.453334 26.24zM286.72 728.96a599.253333 599.253333 0 0 0 80.64 7.253333V448l-36.906667 25.813333a29.226667 29.226667 0 0 1-33.066666 0L259.84 448V725.333333z m-35.84-634.24H157.226667V720.64h44.586666V390.4a29.866667 29.866667 0 0 1 29.866667-30.506667 28.16 28.16 0 0 1 16.213333 5.12l66.346667 46.506667 66.56-46.506667a29.226667 29.226667 0 0 1 41.173333 8.533334 31.573333 31.573333 0 0 1 4.693334 16.853333V727.893333a55.466667 55.466667 0 0 0 10.026666-3.413333l39.893334-15.573333v-653.653334a522.453333 522.453333 0 0 1-225.706667 39.466667z m616.533333-1.28h-25.813333c-98.773333 0-200.533333 1.493333-294.4-40.32V708.48l26.453333 10.88c46.08 20.053333 97.066667 13.013333 151.466667 6.613333a817.92 817.92 0 0 1 91.093333-6.826666h50.986667z"  horiz-adv-x="1024" />
      
      <glyph glyph-name="a-16-zaixiankaoshi" unicode="&#59113;" d="M365.44 138.24a684.8 684.8 0 0 1-209.066667 38.613333V739.413333h34.346667a620.16 620.16 0 0 0 226.133333-40.746666l58.88-22.613334a37.76 37.76 0 0 1 25.6 0l45.866667 18.346667A623.36 623.36 0 0 0 774.4 738.773333h45.653333v-135.253333a35.626667 35.626667 0 0 1 71.04 0v170.666667a35.413333 35.413333 0 0 1-10.24 25.173333A32.213333 32.213333 0 0 1 855.466667 810.666667h-81.28a692.266667 692.266667 0 0 1-253.44-50.133334L488.106667 746.666667l-45.866667 17.493333A691.413333 691.413333 0 0 1 190.293333 810.666667H120.746667A35.84 35.84 0 0 1 85.333333 774.613333v-632.746666A35.626667 35.626667 0 0 1 120.96 106.666667h15.786667A622.08 622.08 0 0 0 341.333333 71.04a36.48 36.48 0 0 1 11.733334-1.92 35.626667 35.626667 0 0 1 11.733333 69.12zM360.32 401.92h-111.36a35.626667 35.626667 0 1 1 0-71.253333h111.36a35.626667 35.626667 0 0 1 0 71.253333zM360.32 585.6h-111.36a35.626667 35.626667 0 1 1 0-71.253333h111.36a35.626667 35.626667 0 0 1 0 71.253333zM613.12 585.6a35.626667 35.626667 0 1 1 0-71.253333H725.333333a35.626667 35.626667 0 0 1 0 71.253333zM925.013333 398.506667l-84.053333 83.84a46.506667 46.506667 0 0 1-65.493333 0L441.6 149.333333c-8.32-8.533333-10.453333-10.666667-40.32-133.973333A46.72 46.72 0 0 1 446.506667-42.666667a49.28 49.28 0 0 1 11.093333 1.28c123.306667 29.866667 125.44 32 133.973333 40.533334L925.226667 332.8a45.653333 45.653333 0 0 1 13.44 32.426667 47.36 47.36 0 0 1-13.653334 33.28zM546.986667 54.4c-9.386667-2.773333-30.72-8.533333-67.626667-17.706667 9.173333 36.906667 14.933333 58.24 17.706667 67.626667l311.04 311.04 49.92-49.92z"  horiz-adv-x="1024" />
      
      <glyph glyph-name="a-15-wodepeixun" unicode="&#59114;" d="M903.04 810.666667H120.96A35.626667 35.626667 0 0 1 85.333333 775.04v-782.08A35.626667 35.626667 0 0 1 120.96-42.666667h782.08A35.626667 35.626667 0 0 1 938.666667-7.04V775.04A35.626667 35.626667 0 0 1 903.04 810.666667z m-205.866667-71.04v-348.16L645.546667 426.666667a35.413333 35.413333 0 0 1-39.68 0L554.666667 391.68V739.626667z m-540.8 0h124.373334v-711.253334H156.373333z m711.253334-711.253334H352V739.626667h131.84v-414.933334a35.2 35.2 0 0 1 18.56-31.36 36.053333 36.053333 0 0 1 36.693333 1.92l86.613334 58.24 87.04-58.24a35.2 35.2 0 0 1 49.28 9.6 34.773333 34.773333 0 0 1 6.186666 19.84V739.626667h99.413334z"  horiz-adv-x="1024" />
      
      <glyph glyph-name="a-13-wodezuoyexukezheng" unicode="&#59116;" d="M899.2 759.466667H124.8A82.346667 82.346667 0 0 1 42.666667 677.333333v-586.666666a82.346667 82.346667 0 0 1 82.133333-82.133334h774.4A82.346667 82.346667 0 0 1 981.333333 90.666667v586.666666a82.346667 82.346667 0 0 1-82.133333 82.133334z m11.733333-668.8a11.733333 11.733333 0 0 0-11.733333-11.733334H124.8a11.733333 11.733333 0 0 0-11.733333 11.733334v586.666666a11.733333 11.733333 0 0 0 11.733333 11.733334h774.4a11.733333 11.733333 0 0 0 11.733333-11.733334zM343.68 628.906667a154.88 154.88 0 0 1-154.666667-154.666667 152.96 152.96 0 0 1 32-93.866667v-207.573333a33.706667 33.706667 0 0 1 49.706667-29.653333l72.96 39.893333 72.746667-39.893333a36.48 36.48 0 0 1 16.213333-4.053334 33.92 33.92 0 0 1 33.706667 33.706667v207.573333a154.453333 154.453333 0 0 1-122.666667 248.533334z m69.333333-423.04L359.68 234.666667a34.346667 34.346667 0 0 1-32.213333 0l-53.12-29.226667v130.773333a152.746667 152.746667 0 0 1 138.666666 0z m-69.333333 167.04a101.333333 101.333333 0 1 0 101.333333 101.333333 101.333333 101.333333 0 0 0-101.333333-101.333333zM802.346667 419.2H573.013333a35.413333 35.413333 0 0 1 0-70.4h224a35.2 35.2 0 1 1 5.333334 70.4zM573.013333 482.133333h224a35.2 35.2 0 1 1 5.333334 70.4 21.333333 21.333333 0 0 1-5.333334 0h-224a35.413333 35.413333 0 0 1 0-70.4zM802.346667 285.866667a21.333333 21.333333 0 0 1-5.333334 0h-224a35.413333 35.413333 0 0 1 0-70.4h224a35.2 35.2 0 1 1 5.333334 70.4z"  horiz-adv-x="1024" />
      
      <glyph glyph-name="a-36-wodezongjie" unicode="&#59129;" d="M711.893333 362.666667a34.986667 34.986667 0 1 1-49.493333 49.706666l-201.386667-200.96-101.12 100.48a35.2 35.2 0 0 1-51.84-47.36l2.346667-2.346666 125.866667-125.226667a34.773333 34.773333 0 0 1 24.746666-10.24 36.053333 36.053333 0 0 1 24.746667 10.24z m-376.746666 44.586666h211.2a35.2 35.2 0 0 1 5.333333 70.4H335.146667a35.2 35.2 0 0 1 0-70.4z m0 164.266667h352a35.2 35.2 0 0 1 5.333333 70.4H335.146667a35.2 35.2 0 0 1 0-70.4zM853.333333 853.333333H171.733333A35.2 35.2 0 0 1 136.533333 818.133333v-868.266666A35.2 35.2 0 0 1 171.946667-85.333333h499.413333a34.986667 34.986667 0 0 1 24.32 9.813333l90.88 86.826667 90.453333 89.173333a36.266667 36.266667 0 0 1 10.453334 25.173333V818.133333A35.2 35.2 0 0 1 853.333333 853.333333zM206.933333 782.933333h611.2v-580.053333h-192a35.626667 35.626667 0 0 1-35.413333-35.2v-182.613333H207.786667z m530.56-721.066666L661.333333-11.52v144h149.333334z"  horiz-adv-x="1024" />
      
      <glyph glyph-name="a-35-wodericheng" unicode="&#59130;" d="M903.04 756.693333h-172.8v18.346667a35.626667 35.626667 0 1 1-71.04 0v-18.346667H370.773333v18.346667a35.626667 35.626667 0 1 1-71.04 0v-18.346667H120.96A35.626667 35.626667 0 0 1 85.333333 721.066667v-728.106667A35.626667 35.626667 0 0 1 120.96-42.666667h782.08A35.626667 35.626667 0 0 1 938.666667-7.04V721.066667a35.626667 35.626667 0 0 1-35.626667 35.626666z m-35.413333-728.32H156.373333v443.733334h711.253334z m0 514.986667H156.373333V685.44h143.36v-18.133333a35.626667 35.626667 0 1 1 71.04 0v18.133333H659.2v-18.133333a35.626667 35.626667 0 1 1 71.04 0v18.133333h137.386667zM336.853333 291.2h350.293334a36.053333 36.053333 0 0 1 0 72.106667H336.853333a36.053333 36.053333 0 0 1 0-72.106667zM533.333333 209.493333h-194.133333a36.053333 36.053333 0 1 1 0-72.106666H533.333333a36.053333 36.053333 0 0 1 0 72.106666z"  horiz-adv-x="1024" />
      
      <glyph glyph-name="a-34-woderizhi" unicode="&#59131;" d="M903.04 810.666667H174.72a35.626667 35.626667 0 0 1-35.626667-35.626667v-187.946667h-18.133333a35.626667 35.626667 0 1 1 0-71.04h18.133333v-264.106666h-18.133333a35.626667 35.626667 0 1 1 0-71.04h18.133333v-187.52A35.626667 35.626667 0 0 1 174.293333-42.666667h728.746667A35.626667 35.626667 0 0 1 938.666667-7.04V775.04A35.626667 35.626667 0 0 1 903.04 810.666667z m-35.413333-782.293334H210.346667v152.533334h18.346666a35.626667 35.626667 0 1 1 0 71.04h-18.346666V516.053333h18.346666a35.626667 35.626667 0 1 1 0 71.04h-18.346666V739.626667h657.28zM336.213333 537.6h351.573334a35.626667 35.626667 0 0 1 0 71.253333H336.213333a35.626667 35.626667 0 0 1 0-71.253333z m0-190.72h351.573334a35.626667 35.626667 0 0 1 0 71.253333H336.213333a35.626667 35.626667 0 0 1 0-71.253333z m0-187.733333h351.573334a35.626667 35.626667 0 0 1 0 71.253333H336.213333a35.626667 35.626667 0 0 1 0-71.253333z"  horiz-adv-x="1024" />
      
      <glyph glyph-name="a-33-gerenzhongxin" unicode="&#59132;" d="M981.333333 384a469.333333 469.333333 0 1 1-762.24-366.506667l4.48-3.2a466.56 466.56 0 0 1 576 0l4.48 3.2A469.333333 469.333333 0 0 1 981.333333 384zM113.066667 384a398.933333 398.933333 0 1 0 693.76-266.026667 271.146667 271.146667 0 0 1-170.666667 188.16 196.48 196.48 0 1 1-277.333333 21.333334 192 192 0 0 1 23.04-22.613334 272.64 272.64 0 0 1-166.826667-186.666666A396.8 396.8 0 0 0 113.066667 384z m396.16-56.106667a128 128 0 1 0 125.226666 129.28v-2.133333a126.72 126.72 0 0 0-125.226666-128zM277.333333 62.08c8.32 116.48 101.973333 196.266667 234.666667 196.266667s224.426667-79.786667 234.666667-196.266667a396.373333 396.373333 0 0 0-469.333334 0z"  horiz-adv-x="1024" />
      
      <glyph glyph-name="a-43-shishijiankong" unicode="&#59154;" d="M512 52.906667A389.546667 389.546667 0 1 1 122.453333 442.453333 389.76 389.76 0 0 1 512 52.906667z m0 704A314.88 314.88 0 1 0 197.12 442.026667 315.306667 315.306667 0 0 0 512 757.333333zM512 236.586667a155.946667 155.946667 0 1 1-155.946667 155.946666A156.373333 156.373333 0 0 1 512 236.586667z m0 237.226666a81.28 81.28 0 1 0-81.28-81.28A81.493333 81.493333 0 0 0 512 473.813333zM759.893333 10.666667H264.106667a37.333333 37.333333 0 0 1 0-74.666667h495.786666a37.333333 37.333333 0 1 1 0 74.666667zM512 619.946667a47.786667 47.786667 0 1 1-47.786667 47.786666A47.786667 47.786667 0 0 1 512 619.946667z"  horiz-adv-x="1024" />
      
    </font>
</defs>
</svg>
